<svg width="375" height="812" viewBox="0 0 375 812" fill="none" xmlns="http://www.w3.org/2000/svg">
<g clip-path="url(#clip0_76_737)">
<rect width="375" height="812" fill="#FDFDFD"/>
<rect x="109.5" y="126.5" width="157" height="157" rx="78.5" fill="white" stroke="#DADADA" stroke-width="3"/>
<path d="M261 205.5C261.013 215.45 258.999 225.298 255.081 234.443L254.837 235.004C248.209 250.083 236.717 262.503 222.197 270.279C207.678 278.055 190.97 280.737 174.746 277.897C174.305 277.819 173.864 277.738 173.424 277.654C168.878 276.773 164.426 275.46 160.129 273.733C159.431 273.453 158.738 273.162 158.05 272.861C157.58 272.657 157.111 272.446 156.645 272.228C143.915 266.328 133.137 256.912 125.582 245.09C118.026 233.267 114.007 219.531 114 205.5C114 164.908 146.908 132 187.5 132C228.092 132 261 164.908 261 205.5Z" fill="#F1F1F1"/>
<path opacity="0.2" d="M174.747 277.898C174.306 277.82 173.865 277.738 173.425 277.654C173.138 269.324 172.153 252.225 168.793 234.318C166.956 224.517 164.405 214.47 160.867 205.489C159.655 202.382 158.27 199.344 156.72 196.391C153.145 189.639 148.809 183.955 143.551 180.104L144.325 179.047C148.698 182.252 152.628 186.752 156.115 192.547C157.161 194.282 158.166 196.133 159.129 198.1C160.162 200.205 161.147 202.44 162.085 204.804C162.683 206.309 163.26 207.866 163.818 209.475C166.244 216.462 168.307 224.434 170.006 233.391C170.383 235.37 170.741 237.397 171.081 239.473C173.714 255.559 174.508 270.43 174.747 277.898Z" fill="#110101"/>
<path opacity="0.2" d="M158.05 272.861C157.58 272.657 157.11 272.446 156.645 272.228C156.19 267.292 155.355 261.169 153.829 255.356C153.16 252.745 152.302 250.187 151.261 247.702C149.519 243.624 147.264 240.158 144.348 238.02L145.122 236.966C148.175 239.201 150.53 242.735 152.35 246.869C154.401 251.527 155.768 256.948 156.68 262.128C157.356 265.974 157.782 269.691 158.05 272.861Z" fill="#110101"/>
<path opacity="0.2" d="M136.238 180.073C139.852 180.073 142.781 177.144 142.781 173.53C142.781 169.917 139.852 166.987 136.238 166.987C132.625 166.987 129.695 169.917 129.695 173.53C129.695 177.144 132.625 180.073 136.238 180.073Z" fill="#110101"/>
<path opacity="0.2" d="M138.344 236.396C141.957 236.396 144.887 233.467 144.887 229.853C144.887 226.24 141.957 223.311 138.344 223.311C134.73 223.311 131.801 226.24 131.801 229.853C131.801 233.467 134.73 236.396 138.344 236.396Z" fill="#110101"/>
<path opacity="0.2" d="M162.212 184.52C160.825 192.348 163.888 199.436 163.888 199.436C163.888 199.436 169.2 193.832 170.588 186.005C171.975 178.177 168.912 171.089 168.912 171.089C168.912 171.089 163.6 176.692 162.212 184.52Z" fill="#110101"/>
<path opacity="0.2" d="M140.467 203.102C147.934 205.832 155.436 204.08 155.436 204.08C155.436 204.08 150.834 197.901 143.367 195.171C135.901 192.441 128.398 194.193 128.398 194.193C128.398 194.193 133.001 200.372 140.467 203.102Z" fill="#110101"/>
<path opacity="0.2" d="M139.202 252.978C144.435 254.892 149.701 253.643 149.701 253.643C149.701 253.643 146.483 249.292 141.249 247.379C136.016 245.465 130.75 246.714 130.75 246.714C130.75 246.714 133.969 251.064 139.202 252.978Z" fill="#110101"/>
<path d="M187.349 221.776C203.175 221.776 216.004 208.947 216.004 193.122C216.004 177.297 203.175 164.468 187.349 164.468C171.524 164.468 158.695 177.297 158.695 193.122C158.695 208.947 171.524 221.776 187.349 221.776Z" fill="#D0CDE1"/>
<path d="M176.156 215.061C176.156 215.061 179.738 232.074 179.738 233.865C179.738 235.656 196.751 243.715 196.751 243.715L211.974 241.029L217.347 224.911C217.347 224.911 208.392 211.479 208.392 206.106L176.156 215.061Z" fill="#D0CDE1"/>
<path d="M255.081 234.444L254.838 235.005C248.21 250.083 236.717 262.503 222.198 270.279C207.678 278.055 190.97 280.738 174.746 277.898C174.305 277.82 173.864 277.738 173.424 277.654C168.878 276.773 164.426 275.46 160.129 273.734C159.431 273.453 158.738 273.162 158.05 272.862C157.581 272.657 157.111 272.446 156.645 272.229C152.427 270.275 148.405 267.924 144.631 265.209L141.234 255.356L143.144 253.9L147.071 250.901L151.261 247.702L152.351 246.869L168.793 234.318L170.006 233.391L178.552 226.868L178.554 226.865C178.554 226.865 187.796 241.924 201.228 237.447C214.66 232.969 214.367 220.131 214.367 220.131L255.081 234.444Z" fill="#2F2E41"/>
<path d="M162.501 170.037C162.501 170.037 171.598 150.325 189.035 154.874C206.472 159.423 216.328 166.246 217.086 173.069C217.844 179.892 216.707 190.127 216.707 190.127C216.707 190.127 214.812 176.102 202.682 179.134C190.552 182.167 171.598 179.892 171.598 179.892L168.566 207.185C168.566 207.185 165.154 202.257 161.364 205.29C157.573 208.322 150.371 176.102 162.501 170.037Z" fill="#2F2E41"/>
<path d="M160.128 273.734C159.43 273.453 158.737 273.162 158.049 272.862C157.58 272.657 157.11 272.446 156.645 272.229C149.668 268.994 143.242 264.687 137.598 259.464C139.596 256.742 141.234 255.356 141.234 255.356H154.666L156.679 262.128L160.128 273.734Z" fill="#2F2E41"/>
<path d="M243.314 232.969L254.837 235.004C251.753 242.029 247.589 248.528 242.494 254.264L243.314 232.969Z" fill="#2F2E41"/>
<g clip-path="url(#clip1_76_737)">
<path fill-rule="evenodd" clip-rule="evenodd" d="M25.4667 349.667C25.4667 351.139 24.2728 352.333 22.8 352.333C21.3272 352.333 20.1333 351.139 20.1333 349.667C20.1333 348.194 21.3272 347 22.8 347C24.2728 347 25.4667 348.194 25.4667 349.667ZM24.2667 349.667C24.2667 350.477 23.61 351.133 22.8 351.133C21.99 351.133 21.3333 350.477 21.3333 349.667C21.3333 348.857 21.99 348.2 22.8 348.2C23.61 348.2 24.2667 348.857 24.2667 349.667Z" fill="#EA630B"/>
<path d="M20.1999 356.6C20.1999 355.164 21.364 354 22.7999 354C24.2359 354 25.3999 355.164 25.3999 356.6H26.5999C26.5999 354.501 24.8986 352.8 22.7999 352.8C20.7012 352.8 18.9999 354.501 18.9999 356.6H20.1999Z" fill="#EA630B"/>
<path fill-rule="evenodd" clip-rule="evenodd" d="M36.4 348.2C36.4 348.531 36.1314 348.8 35.8 348.8H29.2C28.8687 348.8 28.6 348.531 28.6 348.2C28.6 347.869 28.8687 347.6 29.2 347.6H35.8C36.1314 347.6 36.4 347.869 36.4 348.2Z" fill="#EA630B"/>
<path fill-rule="evenodd" clip-rule="evenodd" d="M36.4 351.8C36.4 352.131 36.1314 352.4 35.8 352.4H29.2C28.8687 352.4 28.6 352.131 28.6 351.8C28.6 351.469 28.8687 351.2 29.2 351.2H35.8C36.1314 351.2 36.4 351.469 36.4 351.8Z" fill="#EA630B"/>
<path fill-rule="evenodd" clip-rule="evenodd" d="M36.4 355.4C36.4 355.731 36.1314 356 35.8 356H29.2C28.8687 356 28.6 355.731 28.6 355.4C28.6 355.069 28.8687 354.8 29.2 354.8H35.8C36.1314 354.8 36.4 355.069 36.4 355.4Z" fill="#EA630B"/>
<path fill-rule="evenodd" clip-rule="evenodd" d="M24.3998 340.4C23.4057 340.4 22.5998 341.206 22.5998 342.2H18.9998C17.3429 342.2 15.9998 343.543 15.9998 345.2V356.6C15.9998 358.257 17.3429 359.6 18.9998 359.6H37C38.6568 359.6 40 358.257 40 356.6V345.2C40 343.543 38.6568 342.2 37 342.2H33.3999C33.3999 341.206 32.594 340.4 31.5999 340.4H24.3998ZM33.3999 343.4C33.3999 344.394 32.594 345.2 31.5999 345.2H24.3998C23.4057 345.2 22.5998 344.394 22.5998 343.4H18.9998C18.0057 343.4 17.1998 344.206 17.1998 345.2V356.6C17.1998 357.594 18.0057 358.4 18.9998 358.4H37C37.9941 358.4 38.8 357.594 38.8 356.6V345.2C38.8 344.206 37.9941 343.4 37 343.4H33.3999ZM23.7998 342.2C23.7998 341.869 24.0685 341.6 24.3998 341.6H31.5999C31.9312 341.6 32.1999 341.869 32.1999 342.2V343.4C32.1999 343.731 31.9312 344 31.5999 344H24.3998C24.0685 344 23.7998 343.731 23.7998 343.4V342.2Z" fill="#EA630B"/>
</g>
<path d="M50.544 344.72V351.488C50.544 352.597 50.7893 353.419 51.28 353.952C51.7707 354.475 52.448 354.736 53.312 354.736C54.1653 354.736 54.832 354.469 55.312 353.936C55.792 353.403 56.032 352.587 56.032 351.488V344.72H57.488V351.488C57.488 353.024 57.104 354.181 56.336 354.96C55.5787 355.728 54.56 356.112 53.28 356.112C52.0107 356.112 50.992 355.728 50.224 354.96C49.4667 354.181 49.088 353.024 49.088 351.488V344.72H50.544ZM62.4981 347.104C63.4901 347.104 64.2848 347.365 64.8821 347.888C65.4901 348.4 65.8581 349.093 65.9861 349.968H64.5941C64.5301 349.445 64.3115 349.019 63.9381 348.688C63.5755 348.347 63.0848 348.176 62.4661 348.176C61.9435 348.176 61.5328 348.304 61.2341 348.56C60.9461 348.805 60.8021 349.141 60.8021 349.568C60.8021 349.888 60.8981 350.149 61.0901 350.352C61.2928 350.544 61.5381 350.693 61.8261 350.8C62.1248 350.896 62.5301 351.003 63.0421 351.12C63.6928 351.269 64.2155 351.424 64.6101 351.584C65.0155 351.733 65.3568 351.979 65.6341 352.32C65.9221 352.661 66.0661 353.12 66.0661 353.696C66.0661 354.411 65.7941 354.992 65.2501 355.44C64.7168 355.888 64.0021 356.112 63.1061 356.112C62.0608 356.112 61.2075 355.861 60.5461 355.36C59.8848 354.859 59.4955 354.16 59.3781 353.264H60.7861C60.8395 353.797 61.0688 354.229 61.4741 354.56C61.8901 354.891 62.4341 355.056 63.1061 355.056C63.6075 355.056 63.9968 354.928 64.2741 354.672C64.5621 354.416 64.7061 354.08 64.7061 353.664C64.7061 353.323 64.6048 353.051 64.4021 352.848C64.1995 352.645 63.9488 352.491 63.6501 352.384C63.3515 352.277 62.9408 352.165 62.4181 352.048C61.7675 351.899 61.2448 351.749 60.8501 351.6C60.4661 351.451 60.1355 351.216 59.8581 350.896C59.5915 350.565 59.4581 350.123 59.4581 349.568C59.4581 348.832 59.7301 348.24 60.2741 347.792C60.8181 347.333 61.5595 347.104 62.4981 347.104ZM76.0918 351.12C76.0918 351.429 76.0704 351.696 76.0278 351.92H69.0038C69.0358 352.923 69.3184 353.675 69.8518 354.176C70.3958 354.677 71.0571 354.928 71.8358 354.928C72.5398 354.928 73.1264 354.752 73.5958 354.4C74.0758 354.037 74.3691 353.557 74.4758 352.96H76.0278C75.9211 353.568 75.6811 354.112 75.3078 354.592C74.9451 355.072 74.4704 355.445 73.8838 355.712C73.2971 355.979 72.6358 356.112 71.8998 356.112C71.0571 356.112 70.3104 355.931 69.6598 355.568C69.0091 355.205 68.4971 354.688 68.1238 354.016C67.7611 353.333 67.5798 352.533 67.5798 351.616C67.5798 350.699 67.7611 349.899 68.1238 349.216C68.4971 348.533 69.0091 348.011 69.6598 347.648C70.3104 347.285 71.0571 347.104 71.8998 347.104C72.7531 347.104 73.4944 347.285 74.1238 347.648C74.7638 348.011 75.2491 348.496 75.5798 349.104C75.9211 349.712 76.0918 350.384 76.0918 351.12ZM74.6198 351.216C74.6518 350.565 74.5451 350.021 74.2998 349.584C74.0544 349.147 73.7184 348.821 73.2918 348.608C72.8651 348.395 72.4011 348.288 71.8998 348.288C71.0998 348.288 70.4278 348.539 69.8838 349.04C69.3398 349.531 69.0464 350.256 69.0038 351.216H74.6198ZM79.4521 348.992C79.7401 348.384 80.1615 347.915 80.7161 347.584C81.2708 347.243 81.9321 347.072 82.7001 347.072V348.656H82.2521C81.4308 348.656 80.7588 348.869 80.2361 349.296C79.7135 349.712 79.4521 350.405 79.4521 351.376V356H77.9961V347.216H79.4521V348.992ZM96.8579 356H95.4019L89.5459 347.088V356H88.0899V344.72H89.5459L95.4019 353.648V344.72H96.8579V356ZM102.799 347.104C103.653 347.104 104.373 347.317 104.959 347.744C105.557 348.171 105.973 348.741 106.207 349.456V347.216H107.663V356H106.207V353.76C105.973 354.475 105.557 355.045 104.959 355.472C104.373 355.899 103.653 356.112 102.799 356.112C102.021 356.112 101.327 355.931 100.719 355.568C100.111 355.205 99.6313 354.688 99.2793 354.016C98.9379 353.333 98.7673 352.533 98.7673 351.616C98.7673 350.699 98.9379 349.899 99.2793 349.216C99.6313 348.533 100.111 348.011 100.719 347.648C101.327 347.285 102.021 347.104 102.799 347.104ZM103.215 348.4C102.319 348.4 101.599 348.688 101.055 349.264C100.522 349.829 100.255 350.613 100.255 351.616C100.255 352.619 100.522 353.408 101.055 353.984C101.599 354.549 102.319 354.832 103.215 354.832C103.791 354.832 104.303 354.699 104.751 354.432C105.21 354.165 105.567 353.792 105.823 353.312C106.079 352.821 106.207 352.256 106.207 351.616C106.207 350.976 106.079 350.411 105.823 349.92C105.567 349.429 105.21 349.056 104.751 348.8C104.303 348.533 103.791 348.4 103.215 348.4ZM120.781 347.072C121.805 347.072 122.626 347.403 123.245 348.064C123.874 348.715 124.189 349.659 124.189 350.896V356H122.733V351.024C122.733 350.16 122.519 349.499 122.093 349.04C121.677 348.581 121.101 348.352 120.365 348.352C119.597 348.352 118.978 348.608 118.509 349.12C118.05 349.621 117.821 350.363 117.821 351.344V356H116.365V351.024C116.365 350.16 116.151 349.499 115.725 349.04C115.298 348.581 114.722 348.352 113.997 348.352C113.218 348.352 112.594 348.608 112.125 349.12C111.666 349.621 111.437 350.363 111.437 351.344V356H109.981V347.216H111.437V349.216C111.65 348.523 112.029 347.995 112.573 347.632C113.127 347.259 113.762 347.072 114.477 347.072C115.223 347.072 115.869 347.264 116.413 347.648C116.967 348.021 117.362 348.576 117.597 349.312C117.842 348.597 118.253 348.048 118.829 347.664C119.405 347.269 120.055 347.072 120.781 347.072ZM134.529 351.12C134.529 351.429 134.508 351.696 134.465 351.92H127.441C127.473 352.923 127.756 353.675 128.289 354.176C128.833 354.677 129.495 354.928 130.273 354.928C130.977 354.928 131.564 354.752 132.033 354.4C132.513 354.037 132.807 353.557 132.913 352.96H134.465C134.359 353.568 134.119 354.112 133.745 354.592C133.383 355.072 132.908 355.445 132.321 355.712C131.735 355.979 131.073 356.112 130.337 356.112C129.495 356.112 128.748 355.931 128.097 355.568C127.447 355.205 126.935 354.688 126.561 354.016C126.199 353.333 126.017 352.533 126.017 351.616C126.017 350.699 126.199 349.899 126.561 349.216C126.935 348.533 127.447 348.011 128.097 347.648C128.748 347.285 129.495 347.104 130.337 347.104C131.191 347.104 131.932 347.285 132.561 347.648C133.201 348.011 133.687 348.496 134.017 349.104C134.359 349.712 134.529 350.384 134.529 351.12ZM133.057 351.216C133.089 350.565 132.983 350.021 132.737 349.584C132.492 349.147 132.156 348.821 131.729 348.608C131.303 348.395 130.839 348.288 130.337 348.288C129.537 348.288 128.865 348.539 128.321 349.04C127.777 349.531 127.484 350.256 127.441 351.216H133.057Z" fill="#1C2B3E"/>
<rect x="16.5" y="370.5" width="165" height="53" rx="12.5" fill="#F8F8F8"/>
<path d="M38.608 391.63V392.666H34.296V396.082H37.95V397.076H34.296V401.5H33.022V391.63H38.608ZM39.9637 391.56C39.9637 391.327 40.043 391.14 40.2017 391C40.3604 390.851 40.5704 390.776 40.8317 390.776C41.093 390.776 41.303 390.851 41.4617 391C41.6204 391.14 41.6997 391.327 41.6997 391.56C41.6997 391.793 41.6204 391.985 41.4617 392.134C41.303 392.274 41.093 392.344 40.8317 392.344C40.5704 392.344 40.3604 392.274 40.2017 392.134C40.043 391.985 39.9637 391.793 39.9637 391.56ZM41.4617 393.814V401.5H40.1877V393.814H41.4617ZM44.854 395.368C45.106 394.836 45.4746 394.425 45.96 394.136C46.4453 393.837 47.024 393.688 47.696 393.688V395.074H47.304C46.5853 395.074 45.9973 395.261 45.54 395.634C45.0826 395.998 44.854 396.605 44.854 397.454V401.5H43.58V393.814H44.854V395.368ZM51.431 393.716C52.299 393.716 52.9943 393.945 53.517 394.402C54.049 394.85 54.371 395.457 54.483 396.222H53.265C53.209 395.765 53.0177 395.391 52.691 395.102C52.3737 394.803 51.9443 394.654 51.403 394.654C50.9457 394.654 50.5863 394.766 50.325 394.99C50.073 395.205 49.947 395.499 49.947 395.872C49.947 396.152 50.031 396.381 50.199 396.558C50.3763 396.726 50.591 396.857 50.843 396.95C51.1043 397.034 51.459 397.127 51.907 397.23C52.4763 397.361 52.9337 397.496 53.279 397.636C53.6337 397.767 53.9323 397.981 54.175 398.28C54.427 398.579 54.553 398.98 54.553 399.484C54.553 400.109 54.315 400.618 53.839 401.01C53.3723 401.402 52.747 401.598 51.963 401.598C51.0483 401.598 50.3017 401.379 49.723 400.94C49.1443 400.501 48.8037 399.89 48.701 399.106H49.933C49.9797 399.573 50.1803 399.951 50.535 400.24C50.899 400.529 51.375 400.674 51.963 400.674C52.4017 400.674 52.7423 400.562 52.985 400.338C53.237 400.114 53.363 399.82 53.363 399.456C53.363 399.157 53.2743 398.919 53.097 398.742C52.9197 398.565 52.7003 398.429 52.439 398.336C52.1777 398.243 51.8183 398.145 51.361 398.042C50.7917 397.911 50.3343 397.781 49.989 397.65C49.653 397.519 49.3637 397.314 49.121 397.034C48.8877 396.745 48.771 396.357 48.771 395.872C48.771 395.228 49.009 394.71 49.485 394.318C49.961 393.917 50.6097 393.716 51.431 393.716ZM59.9934 400.38V401.5H59.0414C58.2574 401.5 57.6694 401.313 57.2774 400.94C56.8948 400.567 56.7034 399.941 56.7034 399.064V394.92H55.5554V393.814H56.7034V391.896H57.9914V393.814H59.9794V394.92H57.9914V399.092C57.9914 399.587 58.0801 399.927 58.2574 400.114C58.4441 400.291 58.7614 400.38 59.2094 400.38H59.9934ZM72.8191 401.5H71.5451L66.4211 393.702V401.5H65.1471V391.63H66.4211L71.5451 399.442V391.63H72.8191V401.5ZM78.0878 393.716C78.8344 393.716 79.4644 393.903 79.9778 394.276C80.5004 394.649 80.8644 395.149 81.0698 395.774V393.814H82.3438V401.5H81.0698V399.54C80.8644 400.165 80.5004 400.665 79.9778 401.038C79.4644 401.411 78.8344 401.598 78.0878 401.598C77.4064 401.598 76.7998 401.439 76.2678 401.122C75.7358 400.805 75.3158 400.352 75.0078 399.764C74.7091 399.167 74.5598 398.467 74.5598 397.664C74.5598 396.861 74.7091 396.161 75.0078 395.564C75.3158 394.967 75.7358 394.509 76.2678 394.192C76.7998 393.875 77.4064 393.716 78.0878 393.716ZM78.4518 394.85C77.6678 394.85 77.0378 395.102 76.5618 395.606C76.0951 396.101 75.8618 396.787 75.8618 397.664C75.8618 398.541 76.0951 399.232 76.5618 399.736C77.0378 400.231 77.6678 400.478 78.4518 400.478C78.9558 400.478 79.4038 400.361 79.7958 400.128C80.1971 399.895 80.5098 399.568 80.7338 399.148C80.9578 398.719 81.0698 398.224 81.0698 397.664C81.0698 397.104 80.9578 396.609 80.7338 396.18C80.5098 395.751 80.1971 395.424 79.7958 395.2C79.4038 394.967 78.9558 394.85 78.4518 394.85ZM93.8914 393.688C94.7874 393.688 95.506 393.977 96.0474 394.556C96.598 395.125 96.8734 395.951 96.8734 397.034V401.5H95.5994V397.146C95.5994 396.39 95.4127 395.811 95.0394 395.41C94.6754 395.009 94.1714 394.808 93.5274 394.808C92.8554 394.808 92.314 395.032 91.9034 395.48C91.502 395.919 91.3014 396.567 91.3014 397.426V401.5H90.0274V397.146C90.0274 396.39 89.8407 395.811 89.4674 395.41C89.094 395.009 88.59 394.808 87.9554 394.808C87.274 394.808 86.728 395.032 86.3174 395.48C85.916 395.919 85.7154 396.567 85.7154 397.426V401.5H84.4414V393.814H85.7154V395.564C85.902 394.957 86.2334 394.495 86.7094 394.178C87.1947 393.851 87.75 393.688 88.3754 393.688C89.0287 393.688 89.5934 393.856 90.0694 394.192C90.5547 394.519 90.9 395.004 91.1054 395.648C91.32 395.023 91.6794 394.542 92.1834 394.206C92.6874 393.861 93.2567 393.688 93.8914 393.688ZM105.992 397.23C105.992 397.501 105.973 397.734 105.936 397.93H99.7895C99.8175 398.807 100.065 399.465 100.532 399.904C101.008 400.343 101.586 400.562 102.268 400.562C102.884 400.562 103.397 400.408 103.808 400.1C104.228 399.783 104.484 399.363 104.578 398.84H105.936C105.842 399.372 105.632 399.848 105.306 400.268C104.988 400.688 104.573 401.015 104.06 401.248C103.546 401.481 102.968 401.598 102.324 401.598C101.586 401.598 100.933 401.439 100.364 401.122C99.7942 400.805 99.3462 400.352 99.0195 399.764C98.7022 399.167 98.5435 398.467 98.5435 397.664C98.5435 396.861 98.7022 396.161 99.0195 395.564C99.3462 394.967 99.7942 394.509 100.364 394.192C100.933 393.875 101.586 393.716 102.324 393.716C103.07 393.716 103.719 393.875 104.27 394.192C104.83 394.509 105.254 394.934 105.544 395.466C105.842 395.998 105.992 396.586 105.992 397.23ZM104.704 397.314C104.732 396.745 104.638 396.269 104.424 395.886C104.209 395.503 103.915 395.219 103.542 395.032C103.168 394.845 102.762 394.752 102.324 394.752C101.624 394.752 101.036 394.971 100.56 395.41C100.084 395.839 99.8269 396.474 99.7895 397.314H104.704Z" fill="#C4C4C4"/>
<rect x="16.5" y="370.5" width="165" height="53" rx="12.5" stroke="#DADADA"/>
<rect x="194.5" y="370.5" width="165" height="53" rx="12.5" fill="#F8F8F8"/>
<path d="M212.296 400.506H215.796V401.5H211.022V391.63H212.296V400.506ZM220.312 393.716C221.059 393.716 221.689 393.903 222.202 394.276C222.725 394.649 223.089 395.149 223.294 395.774V393.814H224.568V401.5H223.294V399.54C223.089 400.165 222.725 400.665 222.202 401.038C221.689 401.411 221.059 401.598 220.312 401.598C219.631 401.598 219.024 401.439 218.492 401.122C217.96 400.805 217.54 400.352 217.232 399.764C216.934 399.167 216.784 398.467 216.784 397.664C216.784 396.861 216.934 396.161 217.232 395.564C217.54 394.967 217.96 394.509 218.492 394.192C219.024 393.875 219.631 393.716 220.312 393.716ZM220.676 394.85C219.892 394.85 219.262 395.102 218.786 395.606C218.32 396.101 218.086 396.787 218.086 397.664C218.086 398.541 218.32 399.232 218.786 399.736C219.262 400.231 219.892 400.478 220.676 400.478C221.18 400.478 221.628 400.361 222.02 400.128C222.422 399.895 222.734 399.568 222.958 399.148C223.182 398.719 223.294 398.224 223.294 397.664C223.294 397.104 223.182 396.609 222.958 396.18C222.734 395.751 222.422 395.424 222.02 395.2C221.628 394.967 221.18 394.85 220.676 394.85ZM229.074 393.716C229.942 393.716 230.637 393.945 231.16 394.402C231.692 394.85 232.014 395.457 232.126 396.222H230.908C230.852 395.765 230.661 395.391 230.334 395.102C230.017 394.803 229.587 394.654 229.046 394.654C228.589 394.654 228.229 394.766 227.968 394.99C227.716 395.205 227.59 395.499 227.59 395.872C227.59 396.152 227.674 396.381 227.842 396.558C228.019 396.726 228.234 396.857 228.486 396.95C228.747 397.034 229.102 397.127 229.55 397.23C230.119 397.361 230.577 397.496 230.922 397.636C231.277 397.767 231.575 397.981 231.818 398.28C232.07 398.579 232.196 398.98 232.196 399.484C232.196 400.109 231.958 400.618 231.482 401.01C231.015 401.402 230.39 401.598 229.606 401.598C228.691 401.598 227.945 401.379 227.366 400.94C226.787 400.501 226.447 399.89 226.344 399.106H227.576C227.623 399.573 227.823 399.951 228.178 400.24C228.542 400.529 229.018 400.674 229.606 400.674C230.045 400.674 230.385 400.562 230.628 400.338C230.88 400.114 231.006 399.82 231.006 399.456C231.006 399.157 230.917 398.919 230.74 398.742C230.563 398.565 230.343 398.429 230.082 398.336C229.821 398.243 229.461 398.145 229.004 398.042C228.435 397.911 227.977 397.781 227.632 397.65C227.296 397.519 227.007 397.314 226.764 397.034C226.531 396.745 226.414 396.357 226.414 395.872C226.414 395.228 226.652 394.71 227.128 394.318C227.604 393.917 228.253 393.716 229.074 393.716ZM237.636 400.38V401.5H236.684C235.9 401.5 235.312 401.313 234.92 400.94C234.538 400.567 234.346 399.941 234.346 399.064V394.92H233.198V393.814H234.346V391.896H235.634V393.814H237.622V394.92H235.634V399.092C235.634 399.587 235.723 399.927 235.9 400.114C236.087 400.291 236.404 400.38 236.852 400.38H237.636ZM250.462 401.5H249.188L244.064 393.702V401.5H242.79V391.63H244.064L249.188 399.442V391.63H250.462V401.5ZM255.731 393.716C256.477 393.716 257.107 393.903 257.621 394.276C258.143 394.649 258.507 395.149 258.713 395.774V393.814H259.987V401.5H258.713V399.54C258.507 400.165 258.143 400.665 257.621 401.038C257.107 401.411 256.477 401.598 255.731 401.598C255.049 401.598 254.443 401.439 253.911 401.122C253.379 400.805 252.959 400.352 252.651 399.764C252.352 399.167 252.203 398.467 252.203 397.664C252.203 396.861 252.352 396.161 252.651 395.564C252.959 394.967 253.379 394.509 253.911 394.192C254.443 393.875 255.049 393.716 255.731 393.716ZM256.095 394.85C255.311 394.85 254.681 395.102 254.205 395.606C253.738 396.101 253.505 396.787 253.505 397.664C253.505 398.541 253.738 399.232 254.205 399.736C254.681 400.231 255.311 400.478 256.095 400.478C256.599 400.478 257.047 400.361 257.439 400.128C257.84 399.895 258.153 399.568 258.377 399.148C258.601 398.719 258.713 398.224 258.713 397.664C258.713 397.104 258.601 396.609 258.377 396.18C258.153 395.751 257.84 395.424 257.439 395.2C257.047 394.967 256.599 394.85 256.095 394.85ZM271.534 393.688C272.43 393.688 273.149 393.977 273.69 394.556C274.241 395.125 274.516 395.951 274.516 397.034V401.5H273.242V397.146C273.242 396.39 273.056 395.811 272.682 395.41C272.318 395.009 271.814 394.808 271.17 394.808C270.498 394.808 269.957 395.032 269.546 395.48C269.145 395.919 268.944 396.567 268.944 397.426V401.5H267.67V397.146C267.67 396.39 267.484 395.811 267.11 395.41C266.737 395.009 266.233 394.808 265.598 394.808C264.917 394.808 264.371 395.032 263.96 395.48C263.559 395.919 263.358 396.567 263.358 397.426V401.5H262.084V393.814H263.358V395.564C263.545 394.957 263.876 394.495 264.352 394.178C264.838 393.851 265.393 393.688 266.018 393.688C266.672 393.688 267.236 393.856 267.712 394.192C268.198 394.519 268.543 395.004 268.748 395.648C268.963 395.023 269.322 394.542 269.826 394.206C270.33 393.861 270.9 393.688 271.534 393.688ZM283.634 397.23C283.634 397.501 283.616 397.734 283.578 397.93H277.432C277.46 398.807 277.708 399.465 278.174 399.904C278.65 400.343 279.229 400.562 279.91 400.562C280.526 400.562 281.04 400.408 281.45 400.1C281.87 399.783 282.127 399.363 282.22 398.84H283.578C283.485 399.372 283.275 399.848 282.948 400.268C282.631 400.688 282.216 401.015 281.702 401.248C281.189 401.481 280.61 401.598 279.966 401.598C279.229 401.598 278.576 401.439 278.006 401.122C277.437 400.805 276.989 400.352 276.662 399.764C276.345 399.167 276.186 398.467 276.186 397.664C276.186 396.861 276.345 396.161 276.662 395.564C276.989 394.967 277.437 394.509 278.006 394.192C278.576 393.875 279.229 393.716 279.966 393.716C280.713 393.716 281.362 393.875 281.912 394.192C282.472 394.509 282.897 394.934 283.186 395.466C283.485 395.998 283.634 396.586 283.634 397.23ZM282.346 397.314C282.374 396.745 282.281 396.269 282.066 395.886C281.852 395.503 281.558 395.219 281.184 395.032C280.811 394.845 280.405 394.752 279.966 394.752C279.266 394.752 278.678 394.971 278.202 395.41C277.726 395.839 277.47 396.474 277.432 397.314H282.346Z" fill="#C4C4C4"/>
<rect x="194.5" y="370.5" width="165" height="53" rx="12.5" stroke="#DADADA"/>
<g clip-path="url(#clip2_76_737)">
<path d="M38.7692 452H17.2308C16.5538 452 16 452.554 16 453.231V466.769C16 467.446 16.5538 468 17.2308 468H38.7692C39.4461 468 40 467.446 40 466.769V453.231C40 452.554 39.4462 452 38.7692 452ZM38.3073 452.923L28.708 460.123C28.5354 460.254 28.2705 460.337 28 460.335C27.7295 460.337 27.4646 460.254 27.292 460.123L17.6926 452.923H38.3073ZM33.1797 460.598L38.4105 467.06C38.4157 467.066 38.4221 467.071 38.4277 467.077H17.5723C17.5778 467.071 17.5843 467.066 17.5895 467.06L22.8203 460.598C22.9806 460.4 22.9502 460.11 22.7517 459.949C22.5535 459.789 22.2631 459.819 22.1027 460.017L16.9231 466.416V453.5L26.7384 460.861C27.1074 461.136 27.5562 461.257 27.9999 461.258C28.443 461.257 28.8922 461.137 29.2614 460.861L39.0767 453.5V466.416L33.8972 460.017C33.7369 459.819 33.4461 459.789 33.2483 459.949C33.0498 460.109 33.0193 460.4 33.1797 460.598Z" fill="#EA630B"/>
</g>
<path d="M50.624 455.904V459.76H54.912V460.88H50.624V464.816H55.392V466H49.168V454.72H55.392V455.904H50.624ZM68.0618 457.072C69.0858 457.072 69.9071 457.403 70.5258 458.064C71.1551 458.715 71.4698 459.659 71.4698 460.896V466H70.0138V461.024C70.0138 460.16 69.8004 459.499 69.3738 459.04C68.9578 458.581 68.3818 458.352 67.6458 458.352C66.8778 458.352 66.2591 458.608 65.7898 459.12C65.3311 459.621 65.1018 460.363 65.1018 461.344V466H63.6458V461.024C63.6458 460.16 63.4324 459.499 63.0058 459.04C62.5791 458.581 62.0031 458.352 61.2778 458.352C60.4991 458.352 59.8751 458.608 59.4058 459.12C58.9471 459.621 58.7178 460.363 58.7178 461.344V466H57.2618V457.216H58.7178V459.216C58.9311 458.523 59.3098 457.995 59.8538 457.632C60.4084 457.259 61.0431 457.072 61.7578 457.072C62.5044 457.072 63.1498 457.264 63.6938 457.648C64.2484 458.021 64.6431 458.576 64.8778 459.312C65.1231 458.597 65.5338 458.048 66.1098 457.664C66.6858 457.269 67.3364 457.072 68.0618 457.072ZM77.3305 457.104C78.1838 457.104 78.9038 457.317 79.4905 457.744C80.0878 458.171 80.5038 458.741 80.7385 459.456V457.216H82.1945V466H80.7385V463.76C80.5038 464.475 80.0878 465.045 79.4905 465.472C78.9038 465.899 78.1838 466.112 77.3305 466.112C76.5518 466.112 75.8585 465.931 75.2505 465.568C74.6425 465.205 74.1625 464.688 73.8105 464.016C73.4692 463.333 73.2985 462.533 73.2985 461.616C73.2985 460.699 73.4692 459.899 73.8105 459.216C74.1625 458.533 74.6425 458.011 75.2505 457.648C75.8585 457.285 76.5518 457.104 77.3305 457.104ZM77.7465 458.4C76.8505 458.4 76.1305 458.688 75.5865 459.264C75.0532 459.829 74.7865 460.613 74.7865 461.616C74.7865 462.619 75.0532 463.408 75.5865 463.984C76.1305 464.549 76.8505 464.832 77.7465 464.832C78.3225 464.832 78.8345 464.699 79.2825 464.432C79.7412 464.165 80.0985 463.792 80.3545 463.312C80.6105 462.821 80.7385 462.256 80.7385 461.616C80.7385 460.976 80.6105 460.411 80.3545 459.92C80.0985 459.429 79.7412 459.056 79.2825 458.8C78.8345 458.533 78.3225 458.4 77.7465 458.4ZM84.2558 454.64C84.2558 454.373 84.3464 454.16 84.5278 454C84.7091 453.829 84.9491 453.744 85.2478 453.744C85.5464 453.744 85.7864 453.829 85.9678 454C86.1491 454.16 86.2398 454.373 86.2398 454.64C86.2398 454.907 86.1491 455.125 85.9678 455.296C85.7864 455.456 85.5464 455.536 85.2478 455.536C84.9491 455.536 84.7091 455.456 84.5278 455.296C84.3464 455.125 84.2558 454.907 84.2558 454.64ZM85.9678 457.216V466H84.5118V457.216H85.9678ZM89.7646 454.16V466H88.3086V454.16H89.7646Z" fill="#364545"/>
<rect x="16.5" y="480.5" width="342" height="52" rx="12.5" fill="#F8F8F8"/>
<path d="M42.906 501.298V511H41.632V503.258L38.538 511H37.404L34.296 503.286V511H33.022V501.298H34.548L37.992 509.446L41.38 501.298H42.906ZM48.1639 503.216C48.9105 503.216 49.5405 503.403 50.0539 503.776C50.5765 504.149 50.9405 504.649 51.1459 505.274V503.314H52.4199V511H51.1459V509.04C50.9405 509.665 50.5765 510.165 50.0539 510.538C49.5405 510.911 48.9105 511.098 48.1639 511.098C47.4825 511.098 46.8759 510.939 46.3439 510.622C45.8119 510.305 45.3919 509.852 45.0839 509.264C44.7852 508.667 44.6359 507.967 44.6359 507.164C44.6359 506.361 44.7852 505.661 45.0839 505.064C45.3919 504.467 45.8119 504.009 46.3439 503.692C46.8759 503.375 47.4825 503.216 48.1639 503.216ZM48.5279 504.35C47.7439 504.35 47.1139 504.602 46.6379 505.106C46.1712 505.601 45.9379 506.287 45.9379 507.164C45.9379 508.041 46.1712 508.732 46.6379 509.236C47.1139 509.731 47.7439 509.978 48.5279 509.978C49.0319 509.978 49.4799 509.861 49.8719 509.628C50.2732 509.395 50.5859 509.068 50.8099 508.648C51.0339 508.219 51.1459 507.724 51.1459 507.164C51.1459 506.604 51.0339 506.109 50.8099 505.68C50.5859 505.251 50.2732 504.924 49.8719 504.7C49.4799 504.467 49.0319 504.35 48.5279 504.35ZM54.2935 501.06C54.2935 500.827 54.3728 500.64 54.5315 500.5C54.6901 500.351 54.9001 500.276 55.1615 500.276C55.4228 500.276 55.6328 500.351 55.7915 500.5C55.9501 500.64 56.0295 500.827 56.0295 501.06C56.0295 501.293 55.9501 501.485 55.7915 501.634C55.6328 501.774 55.4228 501.844 55.1615 501.844C54.9001 501.844 54.6901 501.774 54.5315 501.634C54.3728 501.485 54.2935 501.293 54.2935 501.06ZM55.7915 503.314V511H54.5175V503.314H55.7915ZM59.1837 500.64V511H57.9097V500.64H59.1837ZM68.974 499.954C70.3927 499.954 71.606 500.215 72.614 500.738C73.622 501.251 74.3873 501.984 74.91 502.936C75.4327 503.888 75.694 505.003 75.694 506.282C75.694 507.187 75.5353 508.013 75.218 508.76C74.9007 509.497 74.476 510.081 73.944 510.51C73.412 510.93 72.838 511.14 72.222 511.14C71.6527 511.14 71.2047 510.995 70.878 510.706C70.5607 510.407 70.4207 509.927 70.458 509.264C69.7673 510.515 68.764 511.14 67.448 511.14C66.8693 511.14 66.3513 511 65.894 510.72C65.446 510.44 65.096 510.048 64.844 509.544C64.592 509.031 64.466 508.438 64.466 507.766C64.466 506.898 64.648 506.119 65.012 505.428C65.376 504.728 65.8707 504.182 66.496 503.79C67.1307 503.389 67.8353 503.188 68.61 503.188C69.2913 503.188 69.8793 503.323 70.374 503.594C70.8687 503.865 71.242 504.238 71.494 504.714C71.7553 505.19 71.886 505.731 71.886 506.338C71.886 506.487 71.8673 506.711 71.83 507.01L71.522 508.872C71.5033 509.059 71.494 509.18 71.494 509.236C71.494 509.525 71.564 509.731 71.704 509.852C71.844 509.964 72.0447 510.02 72.306 510.02C72.67 510.02 73.0107 509.875 73.328 509.586C73.6547 509.287 73.9113 508.858 74.098 508.298C74.294 507.738 74.392 507.08 74.392 506.324C74.392 505.26 74.1773 504.331 73.748 503.538C73.3187 502.745 72.684 502.129 71.844 501.69C71.0133 501.242 70.0007 501.018 68.806 501.018C67.434 501.018 66.2487 501.317 65.25 501.914C64.2607 502.502 63.5047 503.309 62.982 504.336C62.4687 505.353 62.212 506.497 62.212 507.766C62.212 509.633 62.7347 511.051 63.78 512.022C64.8347 513.002 66.328 513.501 68.26 513.52L68.022 514.57C65.782 514.533 64.0413 513.931 62.8 512.764C61.568 511.607 60.952 509.941 60.952 507.766C60.952 506.291 61.288 504.961 61.96 503.776C62.632 502.581 63.5747 501.648 64.788 500.976C66.0107 500.295 67.406 499.954 68.974 499.954ZM67.84 510.02C68.344 510.02 68.806 509.885 69.226 509.614C69.646 509.334 69.982 508.937 70.234 508.424C70.486 507.901 70.612 507.295 70.612 506.604C70.612 505.895 70.4207 505.339 70.038 504.938C69.6553 504.527 69.114 504.322 68.414 504.322C67.9007 504.322 67.434 504.457 67.014 504.728C66.6033 504.999 66.2813 505.381 66.048 505.876C65.8147 506.371 65.698 506.945 65.698 507.598C65.698 508.317 65.894 508.9 66.286 509.348C66.678 509.796 67.196 510.02 67.84 510.02ZM87.2247 501.298V511H85.9507V503.258L82.8567 511H81.7227L78.6147 503.286V511H77.3407V501.298H78.8667L82.3107 509.446L85.6987 501.298H87.2247ZM92.4826 503.216C93.2293 503.216 93.8593 503.403 94.3726 503.776C94.8953 504.149 95.2593 504.649 95.4646 505.274V503.314H96.7386V511H95.4646V509.04C95.2593 509.665 94.8953 510.165 94.3726 510.538C93.8593 510.911 93.2293 511.098 92.4826 511.098C91.8013 511.098 91.1946 510.939 90.6626 510.622C90.1306 510.305 89.7106 509.852 89.4026 509.264C89.104 508.667 88.9546 507.967 88.9546 507.164C88.9546 506.361 89.104 505.661 89.4026 505.064C89.7106 504.467 90.1306 504.009 90.6626 503.692C91.1946 503.375 91.8013 503.216 92.4826 503.216ZM92.8466 504.35C92.0626 504.35 91.4326 504.602 90.9566 505.106C90.49 505.601 90.2566 506.287 90.2566 507.164C90.2566 508.041 90.49 508.732 90.9566 509.236C91.4326 509.731 92.0626 509.978 92.8466 509.978C93.3506 509.978 93.7986 509.861 94.1906 509.628C94.592 509.395 94.9046 509.068 95.1286 508.648C95.3526 508.219 95.4646 507.724 95.4646 507.164C95.4646 506.604 95.3526 506.109 95.1286 505.68C94.9046 505.251 94.592 504.924 94.1906 504.7C93.7986 504.467 93.3506 504.35 92.8466 504.35ZM98.6122 501.06C98.6122 500.827 98.6915 500.64 98.8502 500.5C99.0089 500.351 99.2189 500.276 99.4802 500.276C99.7415 500.276 99.9515 500.351 100.11 500.5C100.269 500.64 100.348 500.827 100.348 501.06C100.348 501.293 100.269 501.485 100.11 501.634C99.9515 501.774 99.7415 501.844 99.4802 501.844C99.2189 501.844 99.0089 501.774 98.8502 501.634C98.6915 501.485 98.6122 501.293 98.6122 501.06ZM100.11 503.314V511H98.8362V503.314H100.11ZM103.502 500.64V511H102.228V500.64H103.502ZM106.559 509.502V511H105.019V509.502H106.559ZM112.451 501.032C113.655 501.032 114.649 501.331 115.433 501.928C116.217 502.516 116.759 503.323 117.057 504.35H115.713C115.461 503.697 115.055 503.179 114.495 502.796C113.935 502.404 113.249 502.208 112.437 502.208C111.793 502.208 111.215 502.367 110.701 502.684C110.197 502.992 109.796 503.44 109.497 504.028C109.208 504.607 109.063 505.288 109.063 506.072C109.063 506.847 109.208 507.523 109.497 508.102C109.796 508.681 110.197 509.129 110.701 509.446C111.215 509.754 111.793 509.908 112.437 509.908C113.249 509.908 113.935 509.717 114.495 509.334C115.055 508.942 115.461 508.419 115.713 507.766H117.057C116.759 508.793 116.217 509.605 115.433 510.202C114.649 510.79 113.655 511.084 112.451 511.084C111.527 511.084 110.711 510.874 110.001 510.454C109.292 510.025 108.737 509.432 108.335 508.676C107.943 507.911 107.747 507.043 107.747 506.072C107.747 505.092 107.943 504.219 108.335 503.454C108.737 502.689 109.292 502.096 110.001 501.676C110.711 501.247 111.527 501.032 112.451 501.032ZM122.317 503.216C123.054 503.216 123.712 503.375 124.291 503.692C124.879 504.009 125.336 504.467 125.663 505.064C125.999 505.661 126.167 506.361 126.167 507.164C126.167 507.967 125.999 508.667 125.663 509.264C125.336 509.852 124.879 510.305 124.291 510.622C123.712 510.939 123.054 511.098 122.317 511.098C121.58 511.098 120.917 510.939 120.329 510.622C119.75 510.305 119.293 509.852 118.957 509.264C118.621 508.667 118.453 507.967 118.453 507.164C118.453 506.361 118.621 505.661 118.957 505.064C119.293 504.467 119.75 504.009 120.329 503.692C120.917 503.375 121.58 503.216 122.317 503.216ZM122.317 504.336C121.86 504.336 121.435 504.439 121.043 504.644C120.66 504.849 120.348 505.167 120.105 505.596C119.872 506.016 119.755 506.539 119.755 507.164C119.755 507.78 119.872 508.303 120.105 508.732C120.348 509.152 120.66 509.465 121.043 509.67C121.435 509.875 121.86 509.978 122.317 509.978C122.774 509.978 123.194 509.875 123.577 509.67C123.969 509.465 124.282 509.152 124.515 508.732C124.758 508.303 124.879 507.78 124.879 507.164C124.879 506.539 124.758 506.016 124.515 505.596C124.282 505.167 123.969 504.849 123.577 504.644C123.194 504.439 122.774 504.336 122.317 504.336ZM137.347 503.188C138.243 503.188 138.962 503.477 139.503 504.056C140.054 504.625 140.329 505.451 140.329 506.534V511H139.055V506.646C139.055 505.89 138.868 505.311 138.495 504.91C138.131 504.509 137.627 504.308 136.983 504.308C136.311 504.308 135.77 504.532 135.359 504.98C134.958 505.419 134.757 506.067 134.757 506.926V511H133.483V506.646C133.483 505.89 133.296 505.311 132.923 504.91C132.55 504.509 132.046 504.308 131.411 504.308C130.73 504.308 130.184 504.532 129.773 504.98C129.372 505.419 129.171 506.067 129.171 506.926V511H127.897V503.314H129.171V505.064C129.358 504.457 129.689 503.995 130.165 503.678C130.65 503.351 131.206 503.188 131.831 503.188C132.484 503.188 133.049 503.356 133.525 503.692C134.01 504.019 134.356 504.504 134.561 505.148C134.776 504.523 135.135 504.042 135.639 503.706C136.143 503.361 136.712 503.188 137.347 503.188Z" fill="#C4C4C4"/>
<rect x="16.5" y="480.5" width="342" height="52" rx="12.5" stroke="#DADADA"/>
<rect x="16" y="557" width="24" height="24" rx="4" fill="#EA630B"/>
<path d="M24 569.6L27 574L33 563" stroke="white" stroke-width="3" stroke-linecap="round" stroke-linejoin="round"/>
<path d="M55.776 572.392H50.816L49.872 575H48.304L52.48 563.928H54.128L58.288 575H56.72L55.776 572.392ZM55.36 571.256L53.296 565.56L51.232 571.256H55.36ZM63.3618 566.104C64.2151 566.104 64.9351 566.317 65.5218 566.744C66.1191 567.171 66.5351 567.741 66.7698 568.456V566.216H68.2258V575.144C68.2258 575.955 68.0551 576.675 67.7138 577.304C67.3724 577.933 66.8924 578.424 66.2738 578.776C65.6551 579.128 64.9351 579.304 64.1138 579.304C62.9298 579.304 61.9644 579.016 61.2178 578.44C60.4711 577.875 59.9964 577.107 59.7938 576.136H61.2338C61.4044 576.723 61.7244 577.181 62.1938 577.512C62.6738 577.853 63.2871 578.024 64.0338 578.024C64.8231 578.024 65.4738 577.768 65.9858 577.256C66.5084 576.755 66.7698 576.051 66.7698 575.144V572.76C66.5351 573.475 66.1191 574.045 65.5218 574.472C64.9351 574.899 64.2151 575.112 63.3618 575.112C62.5831 575.112 61.8898 574.931 61.2818 574.568C60.6738 574.205 60.1938 573.688 59.8418 573.016C59.5004 572.333 59.3298 571.533 59.3298 570.616C59.3298 569.699 59.5004 568.899 59.8418 568.216C60.1938 567.533 60.6738 567.011 61.2818 566.648C61.8898 566.285 62.5831 566.104 63.3618 566.104ZM63.7778 567.4C62.8818 567.4 62.1618 567.688 61.6178 568.264C61.0844 568.829 60.8178 569.613 60.8178 570.616C60.8178 571.619 61.0844 572.408 61.6178 572.984C62.1618 573.549 62.8818 573.832 63.7778 573.832C64.3538 573.832 64.8658 573.699 65.3138 573.432C65.7724 573.165 66.1298 572.792 66.3858 572.312C66.6418 571.821 66.7698 571.256 66.7698 570.616C66.7698 569.976 66.6418 569.411 66.3858 568.92C66.1298 568.429 65.7724 568.056 65.3138 567.8C64.8658 567.533 64.3538 567.4 63.7778 567.4ZM71.999 567.992C72.287 567.384 72.7083 566.915 73.263 566.584C73.8177 566.243 74.479 566.072 75.247 566.072V567.656H74.799C73.9777 567.656 73.3057 567.869 72.783 568.296C72.2603 568.712 71.999 569.405 71.999 570.376V575H70.543V566.216H71.999V567.992ZM84.7636 570.12C84.7636 570.429 84.7423 570.696 84.6996 570.92H77.6756C77.7076 571.923 77.9903 572.675 78.5236 573.176C79.0676 573.677 79.729 573.928 80.5076 573.928C81.2116 573.928 81.7983 573.752 82.2676 573.4C82.7476 573.037 83.041 572.557 83.1476 571.96H84.6996C84.593 572.568 84.353 573.112 83.9796 573.592C83.617 574.072 83.1423 574.445 82.5556 574.712C81.969 574.979 81.3076 575.112 80.5716 575.112C79.729 575.112 78.9823 574.931 78.3316 574.568C77.681 574.205 77.169 573.688 76.7956 573.016C76.433 572.333 76.2516 571.533 76.2516 570.616C76.2516 569.699 76.433 568.899 76.7956 568.216C77.169 567.533 77.681 567.011 78.3316 566.648C78.9823 566.285 79.729 566.104 80.5716 566.104C81.425 566.104 82.1663 566.285 82.7956 566.648C83.4356 567.011 83.921 567.496 84.2516 568.104C84.593 568.712 84.7636 569.384 84.7636 570.12ZM83.2916 570.216C83.3236 569.565 83.217 569.021 82.9716 568.584C82.7263 568.147 82.3903 567.821 81.9636 567.608C81.537 567.395 81.073 567.288 80.5716 567.288C79.7716 567.288 79.0996 567.539 78.5556 568.04C78.0116 568.531 77.7183 569.256 77.6756 570.216H83.2916ZM94.748 570.12C94.748 570.429 94.7267 570.696 94.684 570.92H87.66C87.692 571.923 87.9747 572.675 88.508 573.176C89.052 573.677 89.7133 573.928 90.492 573.928C91.196 573.928 91.7827 573.752 92.252 573.4C92.732 573.037 93.0253 572.557 93.132 571.96H94.684C94.5773 572.568 94.3373 573.112 93.964 573.592C93.6013 574.072 93.1267 574.445 92.54 574.712C91.9533 574.979 91.292 575.112 90.556 575.112C89.7133 575.112 88.9667 574.931 88.316 574.568C87.6653 574.205 87.1533 573.688 86.78 573.016C86.4173 572.333 86.236 571.533 86.236 570.616C86.236 569.699 86.4173 568.899 86.78 568.216C87.1533 567.533 87.6653 567.011 88.316 566.648C88.9667 566.285 89.7133 566.104 90.556 566.104C91.4093 566.104 92.1507 566.285 92.78 566.648C93.42 567.011 93.9053 567.496 94.236 568.104C94.5773 568.712 94.748 569.384 94.748 570.12ZM93.276 570.216C93.308 569.565 93.2013 569.021 92.956 568.584C92.7107 568.147 92.3747 567.821 91.948 567.608C91.5213 567.395 91.0573 567.288 90.556 567.288C89.756 567.288 89.084 567.539 88.54 568.04C87.996 568.531 87.7027 569.256 87.66 570.216H93.276ZM104.798 573.72V575H103.71C102.814 575 102.142 574.787 101.694 574.36C101.256 573.933 101.038 573.219 101.038 572.216V567.48H99.7255V566.216H101.038V564.024H102.51V566.216H104.782V567.48H102.51V572.248C102.51 572.813 102.611 573.203 102.814 573.416C103.027 573.619 103.39 573.72 103.902 573.72H104.798ZM110.558 566.104C111.401 566.104 112.153 566.285 112.814 566.648C113.486 567.011 114.009 567.533 114.382 568.216C114.766 568.899 114.958 569.699 114.958 570.616C114.958 571.533 114.766 572.333 114.382 573.016C114.009 573.688 113.486 574.205 112.814 574.568C112.153 574.931 111.401 575.112 110.558 575.112C109.716 575.112 108.958 574.931 108.286 574.568C107.625 574.205 107.102 573.688 106.718 573.016C106.334 572.333 106.142 571.533 106.142 570.616C106.142 569.699 106.334 568.899 106.718 568.216C107.102 567.533 107.625 567.011 108.286 566.648C108.958 566.285 109.716 566.104 110.558 566.104ZM110.558 567.384C110.036 567.384 109.55 567.501 109.102 567.736C108.665 567.971 108.308 568.333 108.03 568.824C107.764 569.304 107.63 569.901 107.63 570.616C107.63 571.32 107.764 571.917 108.03 572.408C108.308 572.888 108.665 573.245 109.102 573.48C109.55 573.715 110.036 573.832 110.558 573.832C111.081 573.832 111.561 573.715 111.998 573.48C112.446 573.245 112.804 572.888 113.07 572.408C113.348 571.917 113.486 571.32 113.486 570.616C113.486 569.901 113.348 569.304 113.07 568.824C112.804 568.333 112.446 567.971 111.998 567.736C111.561 567.501 111.081 567.384 110.558 567.384ZM125.001 573.72V575H123.913C123.017 575 122.345 574.787 121.897 574.36C121.459 573.933 121.241 573.219 121.241 572.216V567.48H119.929V566.216H121.241V564.024H122.713V566.216H124.985V567.48H122.713V572.248C122.713 572.813 122.814 573.203 123.017 573.416C123.23 573.619 123.593 573.72 124.105 573.72H125.001ZM131.401 566.072C132.425 566.072 133.252 566.403 133.881 567.064C134.511 567.715 134.825 568.659 134.825 569.896V575H133.369V570.024C133.369 569.149 133.145 568.477 132.697 568.008C132.249 567.539 131.641 567.304 130.873 567.304C130.073 567.304 129.433 567.565 128.953 568.088C128.473 568.6 128.233 569.352 128.233 570.344V575H126.777V563.16H128.233V568.296C128.457 567.581 128.852 567.032 129.417 566.648C129.993 566.264 130.655 566.072 131.401 566.072ZM145.139 570.12C145.139 570.429 145.117 570.696 145.075 570.92H138.051C138.083 571.923 138.365 572.675 138.899 573.176C139.443 573.677 140.104 573.928 140.883 573.928C141.587 573.928 142.173 573.752 142.643 573.4C143.123 573.037 143.416 572.557 143.523 571.96H145.075C144.968 572.568 144.728 573.112 144.355 573.592C143.992 574.072 143.517 574.445 142.931 574.712C142.344 574.979 141.683 575.112 140.947 575.112C140.104 575.112 139.357 574.931 138.707 574.568C138.056 574.205 137.544 573.688 137.171 573.016C136.808 572.333 136.627 571.533 136.627 570.616C136.627 569.699 136.808 568.899 137.171 568.216C137.544 567.533 138.056 567.011 138.707 566.648C139.357 566.285 140.104 566.104 140.947 566.104C141.8 566.104 142.541 566.285 143.171 566.648C143.811 567.011 144.296 567.496 144.627 568.104C144.968 568.712 145.139 569.384 145.139 570.12ZM143.667 570.216C143.699 569.565 143.592 569.021 143.347 568.584C143.101 568.147 142.765 567.821 142.339 567.608C141.912 567.395 141.448 567.288 140.947 567.288C140.147 567.288 139.475 567.539 138.931 568.04C138.387 568.531 138.093 569.256 138.051 570.216H143.667Z" fill="#1C2B3E"/>
<path d="M157.908 563.72V564.904H154.724V575H153.268V564.904H150.084V563.72H157.908ZM167.436 570.12C167.436 570.429 167.414 570.696 167.372 570.92H160.348C160.38 571.923 160.662 572.675 161.196 573.176C161.74 573.677 162.401 573.928 163.18 573.928C163.884 573.928 164.47 573.752 164.94 573.4C165.42 573.037 165.713 572.557 165.82 571.96H167.372C167.265 572.568 167.025 573.112 166.652 573.592C166.289 574.072 165.814 574.445 165.228 574.712C164.641 574.979 163.98 575.112 163.244 575.112C162.401 575.112 161.654 574.931 161.004 574.568C160.353 574.205 159.841 573.688 159.468 573.016C159.105 572.333 158.924 571.533 158.924 570.616C158.924 569.699 159.105 568.899 159.468 568.216C159.841 567.533 160.353 567.011 161.004 566.648C161.654 566.285 162.401 566.104 163.244 566.104C164.097 566.104 164.838 566.285 165.468 566.648C166.108 567.011 166.593 567.496 166.924 568.104C167.265 568.712 167.436 569.384 167.436 570.12ZM165.964 570.216C165.996 569.565 165.889 569.021 165.644 568.584C165.398 568.147 165.062 567.821 164.636 567.608C164.209 567.395 163.745 567.288 163.244 567.288C162.444 567.288 161.772 567.539 161.228 568.04C160.684 568.531 160.39 569.256 160.348 570.216H165.964ZM170.796 567.992C171.084 567.384 171.505 566.915 172.06 566.584C172.615 566.243 173.276 566.072 174.044 566.072V567.656H173.596C172.775 567.656 172.103 567.869 171.58 568.296C171.057 568.712 170.796 569.405 170.796 570.376V575H169.34V566.216H170.796V567.992ZM186.281 566.072C187.305 566.072 188.126 566.403 188.745 567.064C189.374 567.715 189.689 568.659 189.689 569.896V575H188.233V570.024C188.233 569.16 188.019 568.499 187.593 568.04C187.177 567.581 186.601 567.352 185.865 567.352C185.097 567.352 184.478 567.608 184.009 568.12C183.55 568.621 183.321 569.363 183.321 570.344V575H181.865V570.024C181.865 569.16 181.651 568.499 181.225 568.04C180.798 567.581 180.222 567.352 179.497 567.352C178.718 567.352 178.094 567.608 177.625 568.12C177.166 568.621 176.937 569.363 176.937 570.344V575H175.481V566.216H176.937V568.216C177.15 567.523 177.529 566.995 178.073 566.632C178.627 566.259 179.262 566.072 179.977 566.072C180.723 566.072 181.369 566.264 181.913 566.648C182.467 567.021 182.862 567.576 183.097 568.312C183.342 567.597 183.753 567.048 184.329 566.664C184.905 566.269 185.555 566.072 186.281 566.072ZM194.701 566.104C195.693 566.104 196.488 566.365 197.085 566.888C197.693 567.4 198.061 568.093 198.189 568.968H196.797C196.733 568.445 196.515 568.019 196.141 567.688C195.779 567.347 195.288 567.176 194.669 567.176C194.147 567.176 193.736 567.304 193.437 567.56C193.149 567.805 193.005 568.141 193.005 568.568C193.005 568.888 193.101 569.149 193.293 569.352C193.496 569.544 193.741 569.693 194.029 569.8C194.328 569.896 194.733 570.003 195.245 570.12C195.896 570.269 196.419 570.424 196.813 570.584C197.219 570.733 197.56 570.979 197.837 571.32C198.125 571.661 198.269 572.12 198.269 572.696C198.269 573.411 197.997 573.992 197.453 574.44C196.92 574.888 196.205 575.112 195.309 575.112C194.264 575.112 193.411 574.861 192.749 574.36C192.088 573.859 191.699 573.16 191.581 572.264H192.989C193.043 572.797 193.272 573.229 193.677 573.56C194.093 573.891 194.637 574.056 195.309 574.056C195.811 574.056 196.2 573.928 196.477 573.672C196.765 573.416 196.909 573.08 196.909 572.664C196.909 572.323 196.808 572.051 196.605 571.848C196.403 571.645 196.152 571.491 195.853 571.384C195.555 571.277 195.144 571.165 194.621 571.048C193.971 570.899 193.448 570.749 193.053 570.6C192.669 570.451 192.339 570.216 192.061 569.896C191.795 569.565 191.661 569.123 191.661 568.568C191.661 567.832 191.933 567.24 192.477 566.792C193.021 566.333 193.763 566.104 194.701 566.104ZM207.768 566.104C208.621 566.104 209.341 566.317 209.928 566.744C210.525 567.171 210.941 567.741 211.176 568.456V566.216H212.632V575H211.176V572.76C210.941 573.475 210.525 574.045 209.928 574.472C209.341 574.899 208.621 575.112 207.768 575.112C206.989 575.112 206.296 574.931 205.688 574.568C205.08 574.205 204.6 573.688 204.248 573.016C203.907 572.333 203.736 571.533 203.736 570.616C203.736 569.699 203.907 568.899 204.248 568.216C204.6 567.533 205.08 567.011 205.688 566.648C206.296 566.285 206.989 566.104 207.768 566.104ZM208.184 567.4C207.288 567.4 206.568 567.688 206.024 568.264C205.491 568.829 205.224 569.613 205.224 570.616C205.224 571.619 205.491 572.408 206.024 572.984C206.568 573.549 207.288 573.832 208.184 573.832C208.76 573.832 209.272 573.699 209.72 573.432C210.179 573.165 210.536 572.792 210.792 572.312C211.048 571.821 211.176 571.256 211.176 570.616C211.176 569.976 211.048 569.411 210.792 568.92C210.536 568.429 210.179 568.056 209.72 567.8C209.272 567.533 208.76 567.4 208.184 567.4ZM219.573 566.072C220.597 566.072 221.424 566.403 222.053 567.064C222.683 567.715 222.997 568.659 222.997 569.896V575H221.541V570.024C221.541 569.149 221.317 568.477 220.869 568.008C220.421 567.539 219.813 567.304 219.045 567.304C218.245 567.304 217.605 567.565 217.125 568.088C216.645 568.6 216.405 569.352 216.405 570.344V575H214.949V566.216H216.405V568.296C216.629 567.581 217.024 567.032 217.589 566.648C218.165 566.264 218.827 566.072 219.573 566.072ZM228.831 566.104C229.684 566.104 230.404 566.317 230.991 566.744C231.588 567.171 232.004 567.741 232.239 568.456V563.16H233.695V575H232.239V572.76C232.004 573.475 231.588 574.045 230.991 574.472C230.404 574.899 229.684 575.112 228.831 575.112C228.052 575.112 227.359 574.931 226.751 574.568C226.143 574.205 225.663 573.688 225.311 573.016C224.969 572.333 224.799 571.533 224.799 570.616C224.799 569.699 224.969 568.899 225.311 568.216C225.663 567.533 226.143 567.011 226.751 566.648C227.359 566.285 228.052 566.104 228.831 566.104ZM229.247 567.4C228.351 567.4 227.631 567.688 227.087 568.264C226.553 568.829 226.287 569.613 226.287 570.616C226.287 571.619 226.553 572.408 227.087 572.984C227.631 573.549 228.351 573.832 229.247 573.832C229.823 573.832 230.335 573.699 230.783 573.432C231.241 573.165 231.599 572.792 231.855 572.312C232.111 571.821 232.239 571.256 232.239 570.616C232.239 569.976 232.111 569.411 231.855 568.92C231.599 568.429 231.241 568.056 230.783 567.8C230.335 567.533 229.823 567.4 229.247 567.4ZM244.957 563.608C246.333 563.608 247.469 563.949 248.365 564.632C249.261 565.304 249.88 566.227 250.221 567.4H248.685C248.397 566.653 247.933 566.061 247.293 565.624C246.653 565.176 245.869 564.952 244.941 564.952C244.205 564.952 243.544 565.133 242.957 565.496C242.381 565.848 241.922 566.36 241.581 567.032C241.25 567.693 241.085 568.472 241.085 569.368C241.085 570.253 241.25 571.027 241.581 571.688C241.922 572.349 242.381 572.861 242.957 573.224C243.544 573.576 244.205 573.752 244.941 573.752C245.869 573.752 246.653 573.533 247.293 573.096C247.933 572.648 248.397 572.051 248.685 571.304H250.221C249.88 572.477 249.261 573.405 248.365 574.088C247.469 574.76 246.333 575.096 244.957 575.096C243.901 575.096 242.968 574.856 242.157 574.376C241.346 573.885 240.712 573.208 240.253 572.344C239.805 571.469 239.581 570.477 239.581 569.368C239.581 568.248 239.805 567.251 240.253 566.376C240.712 565.501 241.346 564.824 242.157 564.344C242.968 563.853 243.901 563.608 244.957 563.608ZM256.152 566.104C256.995 566.104 257.747 566.285 258.408 566.648C259.08 567.011 259.603 567.533 259.976 568.216C260.36 568.899 260.552 569.699 260.552 570.616C260.552 571.533 260.36 572.333 259.976 573.016C259.603 573.688 259.08 574.205 258.408 574.568C257.747 574.931 256.995 575.112 256.152 575.112C255.309 575.112 254.552 574.931 253.88 574.568C253.219 574.205 252.696 573.688 252.312 573.016C251.928 572.333 251.736 571.533 251.736 570.616C251.736 569.699 251.928 568.899 252.312 568.216C252.696 567.533 253.219 567.011 253.88 566.648C254.552 566.285 255.309 566.104 256.152 566.104ZM256.152 567.384C255.629 567.384 255.144 567.501 254.696 567.736C254.259 567.971 253.901 568.333 253.624 568.824C253.357 569.304 253.224 569.901 253.224 570.616C253.224 571.32 253.357 571.917 253.624 572.408C253.901 572.888 254.259 573.245 254.696 573.48C255.144 573.715 255.629 573.832 256.152 573.832C256.675 573.832 257.155 573.715 257.592 573.48C258.04 573.245 258.397 572.888 258.664 572.408C258.941 571.917 259.08 571.32 259.08 570.616C259.08 569.901 258.941 569.304 258.664 568.824C258.397 568.333 258.04 567.971 257.592 567.736C257.155 567.501 256.675 567.384 256.152 567.384ZM267.073 566.072C268.097 566.072 268.924 566.403 269.553 567.064C270.183 567.715 270.497 568.659 270.497 569.896V575H269.041V570.024C269.041 569.149 268.817 568.477 268.369 568.008C267.921 567.539 267.313 567.304 266.545 567.304C265.745 567.304 265.105 567.565 264.625 568.088C264.145 568.6 263.905 569.352 263.905 570.344V575H262.449V566.216H263.905V568.296C264.129 567.581 264.524 567.032 265.089 566.648C265.665 566.264 266.327 566.072 267.073 566.072ZM276.331 566.104C277.184 566.104 277.904 566.317 278.491 566.744C279.088 567.171 279.504 567.741 279.739 568.456V563.16H281.195V575H279.739V572.76C279.504 573.475 279.088 574.045 278.491 574.472C277.904 574.899 277.184 575.112 276.331 575.112C275.552 575.112 274.859 574.931 274.251 574.568C273.643 574.205 273.163 573.688 272.811 573.016C272.469 572.333 272.299 571.533 272.299 570.616C272.299 569.699 272.469 568.899 272.811 568.216C273.163 567.533 273.643 567.011 274.251 566.648C274.859 566.285 275.552 566.104 276.331 566.104ZM276.747 567.4C275.851 567.4 275.131 567.688 274.587 568.264C274.053 568.829 273.787 569.613 273.787 570.616C273.787 571.619 274.053 572.408 274.587 572.984C275.131 573.549 275.851 573.832 276.747 573.832C277.323 573.832 277.835 573.699 278.283 573.432C278.741 573.165 279.099 572.792 279.355 572.312C279.611 571.821 279.739 571.256 279.739 570.616C279.739 569.976 279.611 569.411 279.355 568.92C279.099 568.429 278.741 568.056 278.283 567.8C277.835 567.533 277.323 567.4 276.747 567.4ZM283.256 563.64C283.256 563.373 283.346 563.16 283.528 563C283.709 562.829 283.949 562.744 284.248 562.744C284.546 562.744 284.786 562.829 284.968 563C285.149 563.16 285.24 563.373 285.24 563.64C285.24 563.907 285.149 564.125 284.968 564.296C284.786 564.456 284.546 564.536 284.248 564.536C283.949 564.536 283.709 564.456 283.528 564.296C283.346 564.125 283.256 563.907 283.256 563.64ZM284.968 566.216V575H283.512V566.216H284.968ZM291.501 573.72V575H290.413C289.517 575 288.845 574.787 288.397 574.36C287.959 573.933 287.741 573.219 287.741 572.216V567.48H286.429V566.216H287.741V564.024H289.213V566.216H291.485V567.48H289.213V572.248C289.213 572.813 289.314 573.203 289.517 573.416C289.73 573.619 290.093 573.72 290.605 573.72H291.501ZM293.021 563.64C293.021 563.373 293.112 563.16 293.293 563C293.475 562.829 293.715 562.744 294.013 562.744C294.312 562.744 294.552 562.829 294.733 563C294.915 563.16 295.005 563.373 295.005 563.64C295.005 563.907 294.915 564.125 294.733 564.296C294.552 564.456 294.312 564.536 294.013 564.536C293.715 564.536 293.475 564.456 293.293 564.296C293.112 564.125 293.021 563.907 293.021 563.64ZM294.733 566.216V575H293.277V566.216H294.733ZM301.058 566.104C301.901 566.104 302.653 566.285 303.314 566.648C303.986 567.011 304.509 567.533 304.882 568.216C305.266 568.899 305.458 569.699 305.458 570.616C305.458 571.533 305.266 572.333 304.882 573.016C304.509 573.688 303.986 574.205 303.314 574.568C302.653 574.931 301.901 575.112 301.058 575.112C300.216 575.112 299.458 574.931 298.786 574.568C298.125 574.205 297.602 573.688 297.218 573.016C296.834 572.333 296.642 571.533 296.642 570.616C296.642 569.699 296.834 568.899 297.218 568.216C297.602 567.533 298.125 567.011 298.786 566.648C299.458 566.285 300.216 566.104 301.058 566.104ZM301.058 567.384C300.536 567.384 300.05 567.501 299.602 567.736C299.165 567.971 298.808 568.333 298.53 568.824C298.264 569.304 298.13 569.901 298.13 570.616C298.13 571.32 298.264 571.917 298.53 572.408C298.808 572.888 299.165 573.245 299.602 573.48C300.05 573.715 300.536 573.832 301.058 573.832C301.581 573.832 302.061 573.715 302.498 573.48C302.946 573.245 303.304 572.888 303.57 572.408C303.848 571.917 303.986 571.32 303.986 570.616C303.986 569.901 303.848 569.304 303.57 568.824C303.304 568.333 302.946 567.971 302.498 567.736C302.061 567.501 301.581 567.384 301.058 567.384ZM311.98 566.072C313.004 566.072 313.83 566.403 314.46 567.064C315.089 567.715 315.404 568.659 315.404 569.896V575H313.948V570.024C313.948 569.149 313.724 568.477 313.276 568.008C312.828 567.539 312.22 567.304 311.452 567.304C310.652 567.304 310.012 567.565 309.532 568.088C309.052 568.6 308.812 569.352 308.812 570.344V575H307.356V566.216H308.812V568.296C309.036 567.581 309.43 567.032 309.996 566.648C310.572 566.264 311.233 566.072 311.98 566.072ZM320.389 566.104C321.381 566.104 322.175 566.365 322.773 566.888C323.381 567.4 323.749 568.093 323.877 568.968H322.485C322.421 568.445 322.202 568.019 321.829 567.688C321.466 567.347 320.975 567.176 320.357 567.176C319.834 567.176 319.423 567.304 319.125 567.56C318.837 567.805 318.693 568.141 318.693 568.568C318.693 568.888 318.789 569.149 318.981 569.352C319.183 569.544 319.429 569.693 319.717 569.8C320.015 569.896 320.421 570.003 320.933 570.12C321.583 570.269 322.106 570.424 322.501 570.584C322.906 570.733 323.247 570.979 323.525 571.32C323.813 571.661 323.957 572.12 323.957 572.696C323.957 573.411 323.685 573.992 323.141 574.44C322.607 574.888 321.893 575.112 320.997 575.112C319.951 575.112 319.098 574.861 318.437 574.36C317.775 573.859 317.386 573.16 317.269 572.264H318.677C318.73 572.797 318.959 573.229 319.365 573.56C319.781 573.891 320.325 574.056 320.997 574.056C321.498 574.056 321.887 573.928 322.165 573.672C322.453 573.416 322.597 573.08 322.597 572.664C322.597 572.323 322.495 572.051 322.293 571.848C322.09 571.645 321.839 571.491 321.541 571.384C321.242 571.277 320.831 571.165 320.309 571.048C319.658 570.899 319.135 570.749 318.741 570.6C318.357 570.451 318.026 570.216 317.749 569.896C317.482 569.565 317.349 569.123 317.349 568.568C317.349 567.832 317.621 567.24 318.165 566.792C318.709 566.333 319.45 566.104 320.389 566.104Z" fill="#EA630B"/>
<rect x="73" y="677" width="230" height="48" rx="8" fill="#EA630B"/>
<path d="M152.671 705.864H156.671V707H151.215V695.72H152.671V705.864ZM166.232 702.12C166.232 702.429 166.211 702.696 166.168 702.92H159.144C159.176 703.923 159.459 704.675 159.992 705.176C160.536 705.677 161.198 705.928 161.976 705.928C162.68 705.928 163.267 705.752 163.736 705.4C164.216 705.037 164.51 704.557 164.616 703.96H166.168C166.062 704.568 165.822 705.112 165.448 705.592C165.086 706.072 164.611 706.445 164.024 706.712C163.438 706.979 162.776 707.112 162.04 707.112C161.198 707.112 160.451 706.931 159.8 706.568C159.15 706.205 158.638 705.688 158.264 705.016C157.902 704.333 157.72 703.533 157.72 702.616C157.72 701.699 157.902 700.899 158.264 700.216C158.638 699.533 159.15 699.011 159.8 698.648C160.451 698.285 161.198 698.104 162.04 698.104C162.894 698.104 163.635 698.285 164.264 698.648C164.904 699.011 165.39 699.496 165.72 700.104C166.062 700.712 166.232 701.384 166.232 702.12ZM164.76 702.216C164.792 701.565 164.686 701.021 164.44 700.584C164.195 700.147 163.859 699.821 163.432 699.608C163.006 699.395 162.542 699.288 162.04 699.288C161.24 699.288 160.568 699.539 160.024 700.04C159.48 700.531 159.187 701.256 159.144 702.216H164.76ZM172.329 705.72V707H171.241C170.345 707 169.673 706.787 169.225 706.36C168.787 705.933 168.569 705.219 168.569 704.216V699.48H167.257V698.216H168.569V696.024H170.041V698.216H172.313V699.48H170.041V704.248C170.041 704.813 170.142 705.203 170.345 705.416C170.558 705.619 170.921 705.72 171.433 705.72H172.329ZM175.018 694.392C175.135 694.904 175.194 695.395 175.194 695.864C175.194 696.461 175.055 696.915 174.778 697.224C174.511 697.523 174.111 697.672 173.578 697.672V697.016C173.855 697.016 174.052 696.947 174.17 696.808C174.287 696.659 174.346 696.435 174.346 696.136V695.768H173.546V694.392H175.018ZM179.701 698.104C180.693 698.104 181.488 698.365 182.085 698.888C182.693 699.4 183.061 700.093 183.189 700.968H181.797C181.733 700.445 181.515 700.019 181.141 699.688C180.779 699.347 180.288 699.176 179.669 699.176C179.147 699.176 178.736 699.304 178.437 699.56C178.149 699.805 178.005 700.141 178.005 700.568C178.005 700.888 178.101 701.149 178.293 701.352C178.496 701.544 178.741 701.693 179.029 701.8C179.328 701.896 179.733 702.003 180.245 702.12C180.896 702.269 181.419 702.424 181.813 702.584C182.219 702.733 182.56 702.979 182.837 703.32C183.125 703.661 183.269 704.12 183.269 704.696C183.269 705.411 182.997 705.992 182.453 706.44C181.92 706.888 181.205 707.112 180.309 707.112C179.264 707.112 178.411 706.861 177.749 706.36C177.088 705.859 176.699 705.16 176.581 704.264H177.989C178.043 704.797 178.272 705.229 178.677 705.56C179.093 705.891 179.637 706.056 180.309 706.056C180.811 706.056 181.2 705.928 181.477 705.672C181.765 705.416 181.909 705.08 181.909 704.664C181.909 704.323 181.808 704.051 181.605 703.848C181.403 703.645 181.152 703.491 180.853 703.384C180.555 703.277 180.144 703.165 179.621 703.048C178.971 702.899 178.448 702.749 178.053 702.6C177.669 702.451 177.339 702.216 177.061 701.896C176.795 701.565 176.661 701.123 176.661 700.568C176.661 699.832 176.933 699.24 177.477 698.792C178.021 698.333 178.763 698.104 179.701 698.104ZM196.304 704.072C196.304 704.605 196.176 705.101 195.92 705.56C195.664 706.019 195.275 706.392 194.752 706.68C194.229 706.968 193.584 707.112 192.816 707.112C192.069 707.112 191.403 706.979 190.816 706.712C190.24 706.435 189.776 706.061 189.424 705.592C189.083 705.112 188.885 704.568 188.832 703.96H190.384C190.416 704.28 190.523 704.595 190.704 704.904C190.896 705.203 191.163 705.453 191.504 705.656C191.856 705.848 192.277 705.944 192.768 705.944C193.408 705.944 193.899 705.773 194.24 705.432C194.581 705.091 194.752 704.653 194.752 704.12C194.752 703.661 194.629 703.288 194.384 703C194.149 702.712 193.856 702.488 193.504 702.328C193.152 702.157 192.672 701.976 192.064 701.784C191.349 701.549 190.773 701.331 190.336 701.128C189.909 700.915 189.541 700.6 189.232 700.184C188.933 699.768 188.784 699.219 188.784 698.536C188.784 697.949 188.923 697.432 189.2 696.984C189.488 696.536 189.893 696.189 190.416 695.944C190.949 695.699 191.573 695.576 192.288 695.576C193.397 695.576 194.277 695.848 194.928 696.392C195.579 696.925 195.957 697.608 196.064 698.44H194.496C194.411 697.992 194.181 697.597 193.808 697.256C193.435 696.915 192.928 696.744 192.288 696.744C191.701 696.744 191.232 696.899 190.88 697.208C190.528 697.507 190.352 697.933 190.352 698.488C190.352 698.925 190.464 699.283 190.688 699.56C190.923 699.827 191.211 700.04 191.552 700.2C191.893 700.349 192.363 700.52 192.96 700.712C193.685 700.947 194.267 701.171 194.704 701.384C195.152 701.597 195.531 701.923 195.84 702.36C196.149 702.787 196.304 703.357 196.304 704.072ZM202.454 705.72V707H201.366C200.47 707 199.798 706.787 199.35 706.36C198.912 705.933 198.694 705.219 198.694 704.216V699.48H197.382V698.216H198.694V696.024H200.166V698.216H202.438V699.48H200.166V704.248C200.166 704.813 200.267 705.203 200.47 705.416C200.683 705.619 201.046 705.72 201.558 705.72H202.454ZM207.831 698.104C208.684 698.104 209.404 698.317 209.991 698.744C210.588 699.171 211.004 699.741 211.239 700.456V698.216H212.695V707H211.239V704.76C211.004 705.475 210.588 706.045 209.991 706.472C209.404 706.899 208.684 707.112 207.831 707.112C207.052 707.112 206.359 706.931 205.751 706.568C205.143 706.205 204.663 705.688 204.311 705.016C203.969 704.333 203.799 703.533 203.799 702.616C203.799 701.699 203.969 700.899 204.311 700.216C204.663 699.533 205.143 699.011 205.751 698.648C206.359 698.285 207.052 698.104 207.831 698.104ZM208.247 699.4C207.351 699.4 206.631 699.688 206.087 700.264C205.553 700.829 205.287 701.613 205.287 702.616C205.287 703.619 205.553 704.408 206.087 704.984C206.631 705.549 207.351 705.832 208.247 705.832C208.823 705.832 209.335 705.699 209.783 705.432C210.241 705.165 210.599 704.792 210.855 704.312C211.111 703.821 211.239 703.256 211.239 702.616C211.239 701.976 211.111 701.411 210.855 700.92C210.599 700.429 210.241 700.056 209.783 699.8C209.335 699.533 208.823 699.4 208.247 699.4ZM216.468 699.992C216.756 699.384 217.177 698.915 217.732 698.584C218.286 698.243 218.948 698.072 219.716 698.072V699.656H219.268C218.446 699.656 217.774 699.869 217.252 700.296C216.729 700.712 216.468 701.405 216.468 702.376V707H215.012V698.216H216.468V699.992ZM225.344 705.72V707H224.256C223.36 707 222.688 706.787 222.24 706.36C221.803 705.933 221.584 705.219 221.584 704.216V699.48H220.272V698.216H221.584V696.024H223.056V698.216H225.328V699.48H223.056V704.248C223.056 704.813 223.158 705.203 223.36 705.416C223.574 705.619 223.936 705.72 224.448 705.72H225.344Z" fill="white"/>
<rect x="234" y="237" width="42.0002" height="42.0006" rx="21.0001" fill="#F5F5F5"/>
<path d="M262.454 256.406C262.065 256.406 261.751 256.721 261.751 257.11V267.422C261.751 268.069 261.225 268.594 260.579 268.594H245.578C244.932 268.594 244.406 268.069 244.406 267.422V252.422C244.406 251.776 244.932 251.25 245.578 251.25H255.891C256.279 251.25 256.594 250.935 256.594 250.547C256.594 250.159 256.279 249.844 255.891 249.844H245.578C244.157 249.844 243 251 243 252.422V267.422C243 268.844 244.157 270.001 245.578 270.001H260.579C262 270.001 263.157 268.844 263.157 267.422V257.11C263.157 256.721 262.842 256.406 262.454 256.406Z" fill="#777777"/>
<path d="M266.52 247.806L265.195 246.48C264.555 245.84 263.514 245.84 262.874 246.48L252.267 257.087C252.169 257.185 252.102 257.31 252.075 257.446L251.412 260.761C251.366 260.991 251.438 261.23 251.604 261.396C251.738 261.529 251.917 261.602 252.102 261.602C252.147 261.602 252.194 261.597 252.239 261.588L255.554 260.925C255.69 260.898 255.815 260.831 255.913 260.733L266.52 250.126C266.52 250.126 266.52 250.126 266.52 250.126C267.16 249.486 267.16 248.445 266.52 247.806ZM255.07 259.588L252.998 260.002L253.412 257.931L262.046 249.297L263.703 250.955L255.07 259.588ZM265.526 249.132L264.697 249.96L263.04 248.303L263.869 247.474C263.96 247.383 264.109 247.383 264.2 247.474L265.526 248.8C265.617 248.891 265.617 249.04 265.526 249.132Z" fill="#777777"/>
<rect x="234" y="237" width="42.0002" height="42.0006" rx="21.0001" stroke="#DADADA" stroke-width="2"/>
<g filter="url(#filter0_d_76_737)">
<rect width="375" height="56" transform="translate(0 36)" fill="#FEFEFE"/>
<rect x="16" y="46" width="36" height="36" rx="8" fill="white"/>
<path d="M24.3637 64.6363L30.6637 70.9363C30.8335 71.1003 31.0608 71.191 31.2968 71.1889C31.5328 71.1869 31.7585 71.0922 31.9254 70.9254C32.0922 70.7585 32.1869 70.5328 32.1889 70.2968C32.191 70.0608 32.1003 69.8335 31.9363 69.6637L27.1726 64.9H43C43.2387 64.9 43.4676 64.8052 43.6364 64.6364C43.8052 64.4676 43.9 64.2387 43.9 64C43.9 63.7613 43.8052 63.5324 43.6364 63.3636C43.4676 63.1949 43.2387 63.1 43 63.1H27.1726L31.9363 58.3363C32.0223 58.2533 32.0908 58.154 32.138 58.0442C32.1852 57.9344 32.21 57.8163 32.2111 57.6968C32.2121 57.5773 32.1893 57.4588 32.1441 57.3482C32.0988 57.2376 32.032 57.1371 31.9475 57.0526C31.863 56.9681 31.7625 56.9013 31.6519 56.856C31.5413 56.8108 31.4228 56.788 31.3033 56.789C31.1838 56.7901 31.0657 56.8149 30.9559 56.8621C30.8461 56.9092 30.7467 56.9778 30.6637 57.0637L24.3637 63.3637C24.195 63.5325 24.1002 63.7614 24.1002 64C24.1002 64.2387 24.195 64.4676 24.3637 64.6363Z" fill="#364545"/>
<path d="M160.315 70L157.867 65.728H157.243V70H154.507V58.688H159.179C160.075 58.688 160.832 58.8427 161.451 59.152C162.069 59.4613 162.533 59.888 162.843 60.432C163.152 60.9653 163.307 61.5787 163.307 62.272C163.307 63.0933 163.077 63.792 162.619 64.368C162.171 64.944 161.515 65.3387 160.651 65.552L163.339 70H160.315ZM157.243 63.856H158.939C159.483 63.856 159.883 63.7387 160.139 63.504C160.395 63.2587 160.523 62.9013 160.523 62.432C160.523 61.984 160.389 61.632 160.123 61.376C159.867 61.12 159.472 60.992 158.939 60.992H157.243V63.856ZM173.158 65.296C173.158 65.52 173.132 65.7653 173.078 66.032H166.886C166.918 66.704 167.089 67.1893 167.398 67.488C167.708 67.776 168.102 67.92 168.582 67.92C168.988 67.92 169.324 67.8187 169.59 67.616C169.857 67.4133 170.033 67.152 170.118 66.832H173.014C172.897 67.4613 172.641 68.0267 172.246 68.528C171.852 69.0187 171.35 69.408 170.742 69.696C170.134 69.9733 169.457 70.112 168.71 70.112C167.836 70.112 167.057 69.9307 166.374 69.568C165.702 69.1947 165.174 68.6613 164.79 67.968C164.406 67.2747 164.214 66.464 164.214 65.536C164.214 64.5973 164.401 63.7867 164.774 63.104C165.158 62.4107 165.692 61.8827 166.374 61.52C167.057 61.1467 167.836 60.96 168.71 60.96C169.596 60.96 170.374 61.1413 171.046 61.504C171.718 61.8667 172.236 62.3787 172.598 63.04C172.972 63.6907 173.158 64.4427 173.158 65.296ZM170.39 64.88C170.401 64.2933 170.241 63.856 169.91 63.568C169.59 63.2693 169.19 63.12 168.71 63.12C168.209 63.12 167.793 63.2693 167.462 63.568C167.132 63.8667 166.945 64.304 166.902 64.88H170.39ZM177.977 60.96C178.659 60.96 179.246 61.1147 179.737 61.424C180.227 61.7333 180.59 62.1547 180.825 62.688V61.072H183.545V69.952C183.545 70.784 183.385 71.5307 183.065 72.192C182.745 72.864 182.254 73.3973 181.593 73.792C180.931 74.1867 180.11 74.384 179.129 74.384C177.785 74.384 176.707 74.064 175.897 73.424C175.097 72.7947 174.617 71.936 174.457 70.848H177.161C177.246 71.2107 177.438 71.4933 177.737 71.696C178.046 71.8987 178.446 72 178.937 72C179.502 72 179.955 71.8347 180.297 71.504C180.649 71.184 180.825 70.6667 180.825 69.952V68.384C180.59 68.9173 180.227 69.3387 179.737 69.648C179.246 69.9573 178.659 70.112 177.977 70.112C177.241 70.112 176.579 69.9307 175.993 69.568C175.417 69.1947 174.958 68.6613 174.617 67.968C174.286 67.2747 174.121 66.464 174.121 65.536C174.121 64.5973 174.286 63.7867 174.617 63.104C174.958 62.4107 175.417 61.8827 175.993 61.52C176.579 61.1467 177.241 60.96 177.977 60.96ZM178.857 63.36C178.27 63.36 177.795 63.552 177.433 63.936C177.081 64.32 176.905 64.8533 176.905 65.536C176.905 66.2187 177.081 66.752 177.433 67.136C177.795 67.52 178.27 67.712 178.857 67.712C179.433 67.712 179.902 67.5147 180.265 67.12C180.638 66.7253 180.825 66.1973 180.825 65.536C180.825 64.864 180.638 64.336 180.265 63.952C179.902 63.5573 179.433 63.36 178.857 63.36ZM185.172 58.56C185.172 58.144 185.322 57.8027 185.62 57.536C185.919 57.2587 186.314 57.12 186.804 57.12C187.295 57.12 187.69 57.2587 187.988 57.536C188.287 57.8027 188.436 58.144 188.436 58.56C188.436 58.9653 188.287 59.3067 187.988 59.584C187.69 59.8507 187.295 59.984 186.804 59.984C186.314 59.984 185.919 59.8507 185.62 59.584C185.322 59.3067 185.172 58.9653 185.172 58.56ZM188.164 61.072V70H185.428V61.072H188.164ZM193.301 60.96C194.432 60.96 195.333 61.2427 196.005 61.808C196.688 62.3733 197.115 63.12 197.285 64.048H194.725C194.651 63.6853 194.48 63.4027 194.213 63.2C193.957 62.9867 193.632 62.88 193.237 62.88C192.928 62.88 192.693 62.9493 192.533 63.088C192.373 63.216 192.293 63.4027 192.293 63.648C192.293 63.9253 192.437 64.1333 192.725 64.272C193.024 64.4107 193.488 64.5493 194.117 64.688C194.8 64.848 195.36 65.0133 195.797 65.184C196.235 65.344 196.613 65.6107 196.933 65.984C197.253 66.3573 197.413 66.8587 197.413 67.488C197.413 68 197.275 68.4533 196.997 68.848C196.72 69.2427 196.32 69.552 195.797 69.776C195.275 70 194.656 70.112 193.941 70.112C192.736 70.112 191.771 69.8453 191.045 69.312C190.32 68.7787 189.877 68.016 189.717 67.024H192.357C192.4 67.408 192.56 67.7013 192.837 67.904C193.125 68.1067 193.493 68.208 193.941 68.208C194.251 68.208 194.485 68.1387 194.645 68C194.805 67.8507 194.885 67.6587 194.885 67.424C194.885 67.1147 194.736 66.896 194.437 66.768C194.149 66.6293 193.675 66.4853 193.013 66.336C192.352 66.1973 191.808 66.048 191.381 65.888C190.955 65.728 190.587 65.472 190.277 65.12C189.968 64.7573 189.813 64.2667 189.813 63.648C189.813 62.848 190.117 62.2027 190.725 61.712C191.333 61.2107 192.192 60.96 193.301 60.96ZM203.984 67.648V70H202.752C201.707 70 200.891 69.744 200.304 69.232C199.728 68.7093 199.44 67.8507 199.44 66.656V63.376H198.24V61.072H199.44V58.88H202.176V61.072H203.968V63.376H202.176V66.704C202.176 67.056 202.246 67.3013 202.384 67.44C202.534 67.5787 202.779 67.648 203.12 67.648H203.984ZM214.002 65.296C214.002 65.52 213.975 65.7653 213.922 66.032H207.73C207.762 66.704 207.933 67.1893 208.242 67.488C208.551 67.776 208.946 67.92 209.426 67.92C209.831 67.92 210.167 67.8187 210.434 67.616C210.701 67.4133 210.877 67.152 210.962 66.832H213.858C213.741 67.4613 213.485 68.0267 213.09 68.528C212.695 69.0187 212.194 69.408 211.586 69.696C210.978 69.9733 210.301 70.112 209.554 70.112C208.679 70.112 207.901 69.9307 207.218 69.568C206.546 69.1947 206.018 68.6613 205.634 67.968C205.25 67.2747 205.058 66.464 205.058 65.536C205.058 64.5973 205.245 63.7867 205.618 63.104C206.002 62.4107 206.535 61.8827 207.218 61.52C207.901 61.1467 208.679 60.96 209.554 60.96C210.439 60.96 211.218 61.1413 211.89 61.504C212.562 61.8667 213.079 62.3787 213.442 63.04C213.815 63.6907 214.002 64.4427 214.002 65.296ZM211.234 64.88C211.245 64.2933 211.085 63.856 210.754 63.568C210.434 63.2693 210.034 63.12 209.554 63.12C209.053 63.12 208.637 63.2693 208.306 63.568C207.975 63.8667 207.789 64.304 207.746 64.88H211.234ZM218.164 62.752C218.506 62.208 218.943 61.776 219.476 61.456C220.02 61.136 220.607 60.976 221.236 60.976V63.904H220.452C219.727 63.904 219.162 64.0587 218.756 64.368C218.362 64.6773 218.164 65.2 218.164 65.936V70H215.428V61.072H218.164V62.752Z" fill="#110101"/>
</g>
<g filter="url(#filter1_b_76_737)">
<rect width="375" height="36" fill="white"/>
<path d="M23.6142 20.245C23.7542 21.115 24.1942 21.55 24.9342 21.55C25.5142 21.55 25.9192 21.285 26.1492 20.755C26.3892 20.225 26.4992 19.4 26.4792 18.28C26.3092 18.69 26.0142 19.015 25.5942 19.255C25.1842 19.485 24.7042 19.6 24.1542 19.6C23.1542 19.6 22.3642 19.3 21.7842 18.7C21.2042 18.09 20.9142 17.22 20.9142 16.09C20.9142 15.38 21.0592 14.75 21.3492 14.2C21.6392 13.65 22.0642 13.225 22.6242 12.925C23.1942 12.615 23.8742 12.46 24.6642 12.46C25.7342 12.46 26.5692 12.685 27.1692 13.135C27.7692 13.585 28.1842 14.2 28.4142 14.98C28.6442 15.75 28.7592 16.68 28.7592 17.77C28.7592 19.69 28.4642 21.145 27.8742 22.135C27.2942 23.115 26.3142 23.605 24.9342 23.605C24.1742 23.605 23.5192 23.455 22.9692 23.155C22.4292 22.845 22.0092 22.435 21.7092 21.925C21.4192 21.415 21.2542 20.855 21.2142 20.245H23.6142ZM26.2842 16.21C26.2842 15.75 26.1542 15.38 25.8942 15.1C25.6342 14.81 25.2542 14.665 24.7542 14.665C24.3042 14.665 23.9492 14.79 23.6892 15.04C23.4392 15.29 23.3142 15.655 23.3142 16.135C23.3142 16.615 23.4442 16.985 23.7042 17.245C23.9642 17.495 24.3192 17.62 24.7692 17.62C25.1992 17.62 25.5592 17.5 25.8492 17.26C26.1392 17.01 26.2842 16.66 26.2842 16.21ZM32.4997 14.83V17.395H29.8297V14.83H32.4997ZM32.4997 20.935V23.5H29.8297V20.935H32.4997ZM33.3565 21.46C36.5365 19.19 38.1265 17.385 38.1265 16.045C38.1265 15.225 37.7715 14.815 37.0615 14.815C36.6615 14.815 36.3665 14.955 36.1765 15.235C35.9965 15.515 35.8965 15.95 35.8765 16.54H33.3715C33.4315 15.25 33.8215 14.28 34.5415 13.63C35.2615 12.98 36.1715 12.655 37.2715 12.655C38.4215 12.655 39.2865 12.945 39.8665 13.525C40.4565 14.105 40.7515 14.86 40.7515 15.79C40.7515 16.82 40.3565 17.83 39.5665 18.82C38.7765 19.8 37.8315 20.63 36.7315 21.31H40.9165V23.38H33.3565V21.46ZM48.3893 14.695L44.5943 23.5H41.9393L45.7793 14.995H41.2793V12.79H48.3893V14.695Z" fill="#364545"/>
<g clip-path="url(#clip3_76_737)">
<path d="M76.0792 10.0515L61.4144 16.0507C60.7976 16.303 60.8919 17.2043 61.5475 17.3235L68.4259 18.5741L69.6765 25.4525C69.7957 26.1081 70.697 26.2024 70.9493 25.5857L76.9486 10.9208C77.1723 10.3738 76.6262 9.82764 76.0792 10.0515ZM70.5798 22.9679L69.655 17.8816C69.6053 17.6084 69.3916 17.3946 69.1184 17.345L64.0321 16.4202L75.1128 11.8872L70.5798 22.9679Z" fill="#364545"/>
</g>
<rect opacity="0.35" x="330.5" y="12.8334" width="21" height="10.3333" rx="2.16667" stroke="#364545"/>
<path opacity="0.4" d="M353 16V20C353.808 19.6612 354.333 18.8731 354.333 18C354.333 17.1269 353.808 16.3388 353 16Z" fill="#364545"/>
<rect x="332" y="14.3334" width="18" height="7.33333" rx="1.33333" fill="#364545"/>
<path fill-rule="evenodd" clip-rule="evenodd" d="M317.334 14.5739C319.559 14.574 321.698 15.4117 323.311 16.9139C323.432 17.0298 323.626 17.0284 323.746 16.9106L324.906 15.7628C324.967 15.703 325.001 15.6221 325 15.5379C325 15.4537 324.965 15.3732 324.904 15.3141C320.672 11.3398 313.995 11.3398 309.763 15.3141C309.702 15.3731 309.667 15.4536 309.667 15.5378C309.666 15.622 309.7 15.703 309.76 15.7628L310.921 16.9106C311.041 17.0286 311.235 17.03 311.356 16.9139C312.969 15.4116 315.109 14.5739 317.334 14.5739ZM317.332 18.2995C318.556 18.2994 319.736 18.756 320.643 19.5806C320.766 19.6976 320.959 19.6951 321.079 19.5749L322.239 18.3977C322.3 18.336 322.334 18.2522 322.333 18.1652C322.333 18.0781 322.297 17.9951 322.235 17.9346C319.472 15.3552 315.195 15.3552 312.432 17.9346C312.37 17.9951 312.334 18.0782 312.333 18.1652C312.333 18.2523 312.367 18.336 312.428 18.3977L313.588 19.5749C313.708 19.6951 313.901 19.6976 314.024 19.5806C314.93 18.7566 316.109 18.3 317.332 18.2995ZM319.667 21.0231C319.668 21.1085 319.634 21.1909 319.572 21.2508L317.557 23.2419C317.498 23.3004 317.418 23.3334 317.334 23.3334C317.249 23.3334 317.169 23.3004 317.11 23.2419L315.095 21.2508C315.033 21.1909 314.998 21.1085 315 21.023C315.002 20.9376 315.04 20.8566 315.105 20.7994C316.391 19.7336 318.276 19.7336 319.562 20.7994C319.627 20.8567 319.665 20.9376 319.667 21.0231Z" fill="#364545"/>
<path fill-rule="evenodd" clip-rule="evenodd" d="M304.667 13.6666C304.667 13.1143 304.219 12.6666 303.667 12.6666H302.667C302.114 12.6666 301.667 13.1143 301.667 13.6666V22.3333C301.667 22.8856 302.114 23.3333 302.667 23.3333H303.667C304.219 23.3333 304.667 22.8856 304.667 22.3333V13.6666ZM298 15H299C299.552 15 300 15.4477 300 16V22.3333C300 22.8856 299.552 23.3333 299 23.3333H298C297.448 23.3333 297 22.8856 297 22.3333V16C297 15.4477 297.448 15 298 15ZM294.333 17.3333H293.333C292.781 17.3333 292.333 17.781 292.333 18.3333V22.3333C292.333 22.8856 292.781 23.3333 293.333 23.3333H294.333C294.886 23.3333 295.333 22.8856 295.333 22.3333V18.3333C295.333 17.781 294.886 17.3333 294.333 17.3333ZM290.667 20.3333C290.667 19.781 290.219 19.3333 289.667 19.3333H288.667C288.114 19.3333 287.667 19.781 287.667 20.3333V22.3333C287.667 22.8856 288.114 23.3333 288.667 23.3333H289.667C290.219 23.3333 290.667 22.8856 290.667 22.3333V20.3333Z" fill="#364545"/>
</g>
</g>
<defs>
<filter id="filter0_d_76_737" x="-24" y="16" width="423" height="104" filterUnits="userSpaceOnUse" color-interpolation-filters="sRGB">
<feFlood flood-opacity="0" result="BackgroundImageFix"/>
<feColorMatrix in="SourceAlpha" type="matrix" values="0 0 0 0 0 0 0 0 0 0 0 0 0 0 0 0 0 0 127 0" result="hardAlpha"/>
<feOffset dy="4"/>
<feGaussianBlur stdDeviation="12"/>
<feComposite in2="hardAlpha" operator="out"/>
<feColorMatrix type="matrix" values="0 0 0 0 0 0 0 0 0 0 0 0 0 0 0 0 0 0 0.1 0"/>
<feBlend mode="normal" in2="BackgroundImageFix" result="effect1_dropShadow_76_737"/>
<feBlend mode="normal" in="SourceGraphic" in2="effect1_dropShadow_76_737" result="shape"/>
</filter>
<filter id="filter1_b_76_737" x="-4" y="-4" width="383" height="44" filterUnits="userSpaceOnUse" color-interpolation-filters="sRGB">
<feFlood flood-opacity="0" result="BackgroundImageFix"/>
<feGaussianBlur in="BackgroundImage" stdDeviation="2"/>
<feComposite in2="SourceAlpha" operator="in" result="effect1_backgroundBlur_76_737"/>
<feBlend mode="normal" in="SourceGraphic" in2="effect1_backgroundBlur_76_737" result="shape"/>
</filter>
<clipPath id="clip0_76_737">
<rect width="375" height="812" fill="white"/>
</clipPath>
<clipPath id="clip1_76_737">
<rect width="24" height="24" fill="white" transform="translate(16 338)"/>
</clipPath>
<clipPath id="clip2_76_737">
<rect width="24" height="24" fill="white" transform="translate(16 448)"/>
</clipPath>
<clipPath id="clip3_76_737">
<rect width="16" height="16" fill="white" transform="translate(61 10)"/>
</clipPath>
</defs>
</svg>
