<svg width="375" height="812" viewBox="0 0 375 812" fill="none" xmlns="http://www.w3.org/2000/svg">
<g clip-path="url(#clip0_66_1168)">
<rect width="375" height="812" fill="#FDFDFD"/>
<rect x="16.5" y="749.5" width="289" height="47" rx="23.5" fill="#F8F8F8" stroke="#DADADA"/>
<rect x="311" y="749" width="48" height="48" rx="24" fill="#EA630B"/>
<g clip-path="url(#clip1_66_1168)">
<path d="M329.554 785C327.942 785 326.43 784.376 325.298 783.243C324.166 782.11 323.541 780.599 323.541 778.987C323.541 777.375 324.165 775.864 325.298 774.731L337.746 762.283C339.527 760.503 342.295 760.583 344.183 762.472C346.072 764.36 346.153 767.127 344.372 768.909L332.678 780.603C331.58 781.701 329.792 781.703 328.693 780.603C327.594 779.504 327.594 777.716 328.693 776.618L336.614 768.696C336.881 768.429 337.314 768.429 337.582 768.696C337.849 768.964 337.849 769.396 337.582 769.664L329.66 777.585C329.095 778.15 329.095 779.07 329.66 779.636C330.226 780.201 331.145 780.2 331.71 779.636L343.405 767.941C344.634 766.712 344.553 764.776 343.216 763.439C341.879 762.102 339.943 762.021 338.713 763.251L326.265 775.699C325.391 776.573 324.909 777.741 324.909 778.987C324.909 780.234 325.391 781.402 326.265 782.276C327.14 783.15 328.308 783.632 329.554 783.632C330.8 783.632 331.968 783.15 332.842 782.276L345.291 769.828C345.558 769.561 345.991 769.561 346.258 769.828C346.525 770.095 346.525 770.528 346.258 770.795L333.81 783.243C332.677 784.376 331.166 785 329.554 785Z" fill="white"/>
</g>
<path d="M40.084 767.242V768.278H37.424V777H36.15V768.278H33.476V767.242H40.084ZM48.2602 769.328L43.6402 780.612H42.3242L43.8362 776.916L40.7422 769.328H42.1562L44.5642 775.544L46.9442 769.328H48.2602ZM50.8149 770.742C51.0669 770.303 51.4402 769.939 51.9349 769.65C52.4389 769.351 53.0222 769.202 53.6849 769.202C54.3662 769.202 54.9822 769.365 55.5329 769.692C56.0929 770.019 56.5316 770.481 56.8489 771.078C57.1662 771.666 57.3249 772.352 57.3249 773.136C57.3249 773.911 57.1662 774.601 56.8489 775.208C56.5316 775.815 56.0929 776.286 55.5329 776.622C54.9822 776.958 54.3662 777.126 53.6849 777.126C53.0316 777.126 52.4529 776.981 51.9489 776.692C51.4542 776.393 51.0762 776.025 50.8149 775.586V780.64H49.5409V769.328H50.8149V770.742ZM56.0229 773.136C56.0229 772.557 55.9062 772.053 55.6729 771.624C55.4396 771.195 55.1222 770.868 54.7209 770.644C54.3289 770.42 53.8949 770.308 53.4189 770.308C52.9522 770.308 52.5182 770.425 52.1169 770.658C51.7249 770.882 51.4076 771.213 51.1649 771.652C50.9316 772.081 50.8149 772.581 50.8149 773.15C50.8149 773.729 50.9316 774.237 51.1649 774.676C51.4076 775.105 51.7249 775.437 52.1169 775.67C52.5182 775.894 52.9522 776.006 53.4189 776.006C53.8949 776.006 54.3289 775.894 54.7209 775.67C55.1222 775.437 55.4396 775.105 55.6729 774.676C55.9062 774.237 56.0229 773.724 56.0229 773.136ZM66.0018 772.87C66.0018 773.113 65.9878 773.369 65.9598 773.64H59.8278C59.8745 774.396 60.1312 774.989 60.5978 775.418C61.0738 775.838 61.6478 776.048 62.3198 776.048C62.8705 776.048 63.3278 775.922 63.6918 775.67C64.0652 775.409 64.3265 775.063 64.4758 774.634H65.8478C65.6425 775.371 65.2318 775.973 64.6158 776.44C63.9998 776.897 63.2345 777.126 62.3198 777.126C61.5918 777.126 60.9385 776.963 60.3598 776.636C59.7905 776.309 59.3425 775.847 59.0158 775.25C58.6892 774.643 58.5258 773.943 58.5258 773.15C58.5258 772.357 58.6845 771.661 59.0018 771.064C59.3192 770.467 59.7625 770.009 60.3318 769.692C60.9105 769.365 61.5732 769.202 62.3198 769.202C63.0478 769.202 63.6918 769.361 64.2518 769.678C64.8118 769.995 65.2412 770.434 65.5398 770.994C65.8478 771.545 66.0018 772.17 66.0018 772.87ZM64.6858 772.604C64.6858 772.119 64.5785 771.703 64.3638 771.358C64.1492 771.003 63.8552 770.737 63.4818 770.56C63.1178 770.373 62.7118 770.28 62.2638 770.28C61.6198 770.28 61.0692 770.485 60.6118 770.896C60.1638 771.307 59.9072 771.876 59.8418 772.604H64.6858ZM78.9339 767.242V777H77.6599V772.576H72.6899V777H71.4159V767.242H72.6899V771.526H77.6599V767.242H78.9339ZM88.1093 772.87C88.1093 773.113 88.0953 773.369 88.0673 773.64H81.9353C81.9819 774.396 82.2386 774.989 82.7053 775.418C83.1813 775.838 83.7553 776.048 84.4273 776.048C84.9779 776.048 85.4353 775.922 85.7993 775.67C86.1726 775.409 86.4339 775.063 86.5833 774.634H87.9553C87.7499 775.371 87.3393 775.973 86.7233 776.44C86.1073 776.897 85.3419 777.126 84.4273 777.126C83.6993 777.126 83.0459 776.963 82.4673 776.636C81.8979 776.309 81.4499 775.847 81.1233 775.25C80.7966 774.643 80.6333 773.943 80.6333 773.15C80.6333 772.357 80.7919 771.661 81.1093 771.064C81.4266 770.467 81.8699 770.009 82.4393 769.692C83.0179 769.365 83.6806 769.202 84.4273 769.202C85.1553 769.202 85.7993 769.361 86.3593 769.678C86.9193 769.995 87.3486 770.434 87.6473 770.994C87.9553 771.545 88.1093 772.17 88.1093 772.87ZM86.7933 772.604C86.7933 772.119 86.6859 771.703 86.4713 771.358C86.2566 771.003 85.9626 770.737 85.5893 770.56C85.2253 770.373 84.8193 770.28 84.3713 770.28C83.7273 770.28 83.1766 770.485 82.7193 770.896C82.2713 771.307 82.0146 771.876 81.9493 772.604H86.7933ZM91.0649 770.574C91.2889 770.135 91.6062 769.795 92.0169 769.552C92.4369 769.309 92.9456 769.188 93.5429 769.188V770.504H93.2069C91.7789 770.504 91.0649 771.279 91.0649 772.828V777H89.7909V769.328H91.0649V770.574ZM102.014 772.87C102.014 773.113 102 773.369 101.972 773.64H95.8395C95.8862 774.396 96.1429 774.989 96.6095 775.418C97.0855 775.838 97.6595 776.048 98.3315 776.048C98.8822 776.048 99.3395 775.922 99.7035 775.67C100.077 775.409 100.338 775.063 100.488 774.634H101.86C101.654 775.371 101.244 775.973 100.628 776.44C100.012 776.897 99.2462 777.126 98.3315 777.126C97.6035 777.126 96.9502 776.963 96.3715 776.636C95.8022 776.309 95.3542 775.847 95.0275 775.25C94.7009 774.643 94.5375 773.943 94.5375 773.15C94.5375 772.357 94.6962 771.661 95.0135 771.064C95.3309 770.467 95.7742 770.009 96.3435 769.692C96.9222 769.365 97.5849 769.202 98.3315 769.202C99.0595 769.202 99.7035 769.361 100.264 769.678C100.824 769.995 101.253 770.434 101.552 770.994C101.86 771.545 102.014 772.17 102.014 772.87ZM100.698 772.604C100.698 772.119 100.59 771.703 100.376 771.358C100.161 771.003 99.8669 770.737 99.4935 770.56C99.1295 770.373 98.7235 770.28 98.2755 770.28C97.6315 770.28 97.0809 770.485 96.6235 770.896C96.1755 771.307 95.9189 771.876 95.8535 772.604H100.698ZM107.834 777.084C107.591 777.084 107.386 777 107.218 776.832C107.05 776.664 106.966 776.459 106.966 776.216C106.966 775.973 107.05 775.768 107.218 775.6C107.386 775.432 107.591 775.348 107.834 775.348C108.067 775.348 108.263 775.432 108.422 775.6C108.59 775.768 108.674 775.973 108.674 776.216C108.674 776.459 108.59 776.664 108.422 776.832C108.263 777 108.067 777.084 107.834 777.084ZM110.773 777.084C110.53 777.084 110.325 777 110.157 776.832C109.989 776.664 109.905 776.459 109.905 776.216C109.905 775.973 109.989 775.768 110.157 775.6C110.325 775.432 110.53 775.348 110.773 775.348C111.006 775.348 111.202 775.432 111.361 775.6C111.529 775.768 111.613 775.973 111.613 776.216C111.613 776.459 111.529 776.664 111.361 776.832C111.202 777 111.006 777.084 110.773 777.084ZM113.713 777.084C113.47 777.084 113.265 777 113.097 776.832C112.929 776.664 112.845 776.459 112.845 776.216C112.845 775.973 112.929 775.768 113.097 775.6C113.265 775.432 113.47 775.348 113.713 775.348C113.946 775.348 114.142 775.432 114.301 775.6C114.469 775.768 114.553 775.973 114.553 776.216C114.553 776.459 114.469 776.664 114.301 776.832C114.142 777 113.946 777.084 113.713 777.084Z" fill="#747474"/>
<path d="M191 130.4C191 122.559 191 118.639 189.474 115.644C188.132 113.01 185.99 110.868 183.356 109.526C180.361 108 176.441 108 168.6 108H38.4C30.5593 108 26.6389 108 23.6441 109.526C21.0099 110.868 18.8681 113.01 17.5259 115.644C16 118.639 16 122.559 16 130.4V154.25C16 156.214 14.8078 157.981 12.9869 158.717C8.07747 160.699 9.49597 168 14.7906 168H42.5H168.6C176.441 168 180.361 168 183.356 166.474C185.99 165.132 188.132 162.99 189.474 160.356C191 157.361 191 153.441 191 145.6V130.4Z" fill="#E5E5E5"/>
<path d="M144 216C144 208.268 150.268 202 158 202H345C352.732 202 359 208.268 359 216V248.25C359 250.214 360.192 251.981 362.013 252.717C366.923 254.699 365.504 262 360.209 262H332.5H158C150.268 262 144 255.732 144 248V216Z" fill="#EA630B"/>
<path d="M40.584 135.072C41.2453 135.072 41.8427 135.216 42.376 135.504C42.9093 135.781 43.3253 136.203 43.624 136.768C43.9333 137.333 44.088 138.021 44.088 138.832V144H42.648V139.04C42.648 138.165 42.4293 137.499 41.992 137.04C41.5547 136.571 40.9573 136.336 40.2 136.336C39.432 136.336 38.8187 136.576 38.36 137.056C37.912 137.536 37.688 138.235 37.688 139.152V144H36.232V132.16H37.688V136.48C37.976 136.032 38.3707 135.685 38.872 135.44C39.384 135.195 39.9547 135.072 40.584 135.072ZM47.2184 133.808C46.941 133.808 46.7064 133.712 46.5144 133.52C46.3224 133.328 46.2264 133.093 46.2264 132.816C46.2264 132.539 46.3224 132.304 46.5144 132.112C46.7064 131.92 46.941 131.824 47.2184 131.824C47.485 131.824 47.709 131.92 47.8904 132.112C48.0824 132.304 48.1784 132.539 48.1784 132.816C48.1784 133.093 48.0824 133.328 47.8904 133.52C47.709 133.712 47.485 133.808 47.2184 133.808ZM47.9224 135.232V144H46.4664V135.232H47.9224ZM59.0215 135.072C59.6828 135.072 60.2802 135.216 60.8135 135.504C61.3468 135.781 61.7628 136.203 62.0615 136.768C62.3708 137.333 62.5255 138.021 62.5255 138.832V144H61.0855V139.04C61.0855 138.165 60.8668 137.499 60.4295 137.04C59.9922 136.571 59.3948 136.336 58.6375 136.336C57.8695 136.336 57.2562 136.576 56.7975 137.056C56.3495 137.536 56.1255 138.235 56.1255 139.152V144H54.6695V132.16H56.1255V136.48C56.4135 136.032 56.8082 135.685 57.3095 135.44C57.8215 135.195 58.3922 135.072 59.0215 135.072ZM68.7279 144.144C67.9065 144.144 67.1599 143.957 66.4879 143.584C65.8265 143.211 65.3039 142.683 64.9199 142C64.5465 141.307 64.3599 140.507 64.3599 139.6C64.3599 138.704 64.5519 137.915 64.9359 137.232C65.3305 136.539 65.8639 136.011 66.5359 135.648C67.2079 135.275 67.9599 135.088 68.7919 135.088C69.6239 135.088 70.3759 135.275 71.0479 135.648C71.7199 136.011 72.2479 136.533 72.6319 137.216C73.0265 137.899 73.2239 138.693 73.2239 139.6C73.2239 140.507 73.0212 141.307 72.6159 142C72.2212 142.683 71.6825 143.211 70.9999 143.584C70.3172 143.957 69.5599 144.144 68.7279 144.144ZM68.7279 142.864C69.2505 142.864 69.7412 142.741 70.1999 142.496C70.6585 142.251 71.0265 141.883 71.3039 141.392C71.5919 140.901 71.7359 140.304 71.7359 139.6C71.7359 138.896 71.5972 138.299 71.3199 137.808C71.0425 137.317 70.6799 136.955 70.2319 136.72C69.7839 136.475 69.2985 136.352 68.7759 136.352C68.2425 136.352 67.7519 136.475 67.3039 136.72C66.8665 136.955 66.5145 137.317 66.2479 137.808C65.9812 138.299 65.8479 138.896 65.8479 139.6C65.8479 140.315 65.9759 140.917 66.2319 141.408C66.4985 141.899 66.8505 142.267 67.2879 142.512C67.7252 142.747 68.2052 142.864 68.7279 142.864ZM86.8183 135.232L84.0823 144H82.5783L80.4663 137.04L78.3543 144H76.8503L74.0983 135.232H75.5863L77.6023 142.592L79.7783 135.232H81.2663L83.3943 142.608L85.3783 135.232H86.8183ZM91.9849 139.584C91.9849 138.688 92.1662 137.904 92.5289 137.232C92.8915 136.549 93.3875 136.021 94.0169 135.648C94.6569 135.275 95.3662 135.088 96.1449 135.088C96.9129 135.088 97.5795 135.253 98.1449 135.584C98.7102 135.915 99.1315 136.331 99.4089 136.832V135.232H100.881V144H99.4089V142.368C99.1209 142.88 98.6889 143.307 98.1129 143.648C97.5475 143.979 96.8862 144.144 96.1289 144.144C95.3502 144.144 94.6462 143.952 94.0169 143.568C93.3875 143.184 92.8915 142.645 92.5289 141.952C92.1662 141.259 91.9849 140.469 91.9849 139.584ZM99.4089 139.6C99.4089 138.939 99.2755 138.363 99.0089 137.872C98.7422 137.381 98.3795 137.008 97.9209 136.752C97.4729 136.485 96.9769 136.352 96.4329 136.352C95.8889 136.352 95.3929 136.48 94.9449 136.736C94.4969 136.992 94.1395 137.365 93.8729 137.856C93.6062 138.347 93.4729 138.923 93.4729 139.584C93.4729 140.256 93.6062 140.843 93.8729 141.344C94.1395 141.835 94.4969 142.213 94.9449 142.48C95.3929 142.736 95.8889 142.864 96.4329 142.864C96.9769 142.864 97.4729 142.736 97.9209 142.48C98.3795 142.213 98.7422 141.835 99.0089 141.344C99.2755 140.843 99.4089 140.261 99.4089 139.6ZM104.797 136.656C105.053 136.155 105.416 135.765 105.885 135.488C106.365 135.211 106.947 135.072 107.629 135.072V136.576H107.245C105.613 136.576 104.797 137.461 104.797 139.232V144H103.341V135.232H104.797V136.656ZM117.31 139.28C117.31 139.557 117.294 139.851 117.262 140.16H110.254C110.307 141.024 110.601 141.701 111.134 142.192C111.678 142.672 112.334 142.912 113.102 142.912C113.731 142.912 114.254 142.768 114.67 142.48C115.097 142.181 115.395 141.787 115.566 141.296H117.134C116.899 142.139 116.43 142.827 115.726 143.36C115.022 143.883 114.147 144.144 113.102 144.144C112.27 144.144 111.523 143.957 110.862 143.584C110.211 143.211 109.699 142.683 109.326 142C108.953 141.307 108.766 140.507 108.766 139.6C108.766 138.693 108.947 137.899 109.31 137.216C109.673 136.533 110.179 136.011 110.83 135.648C111.491 135.275 112.249 135.088 113.102 135.088C113.934 135.088 114.67 135.269 115.31 135.632C115.95 135.995 116.441 136.496 116.782 137.136C117.134 137.765 117.31 138.48 117.31 139.28ZM115.806 138.976C115.806 138.421 115.683 137.947 115.438 137.552C115.193 137.147 114.857 136.843 114.43 136.64C114.014 136.427 113.55 136.32 113.038 136.32C112.302 136.32 111.673 136.555 111.15 137.024C110.638 137.493 110.345 138.144 110.27 138.976H115.806ZM131.05 135.232L125.77 148.128H124.266L125.994 143.904L122.458 135.232H124.074L126.826 142.336L129.546 135.232H131.05ZM136.337 144.144C135.516 144.144 134.769 143.957 134.097 143.584C133.436 143.211 132.913 142.683 132.529 142C132.156 141.307 131.969 140.507 131.969 139.6C131.969 138.704 132.161 137.915 132.545 137.232C132.94 136.539 133.473 136.011 134.145 135.648C134.817 135.275 135.569 135.088 136.401 135.088C137.233 135.088 137.985 135.275 138.657 135.648C139.329 136.011 139.857 136.533 140.241 137.216C140.636 137.899 140.833 138.693 140.833 139.6C140.833 140.507 140.631 141.307 140.225 142C139.831 142.683 139.292 143.211 138.609 143.584C137.927 143.957 137.169 144.144 136.337 144.144ZM136.337 142.864C136.86 142.864 137.351 142.741 137.809 142.496C138.268 142.251 138.636 141.883 138.913 141.392C139.201 140.901 139.345 140.304 139.345 139.6C139.345 138.896 139.207 138.299 138.929 137.808C138.652 137.317 138.289 136.955 137.841 136.72C137.393 136.475 136.908 136.352 136.385 136.352C135.852 136.352 135.361 136.475 134.913 136.72C134.476 136.955 134.124 137.317 133.857 137.808C133.591 138.299 133.457 138.896 133.457 139.6C133.457 140.315 133.585 140.917 133.841 141.408C134.108 141.899 134.46 142.267 134.897 142.512C135.335 142.747 135.815 142.864 136.337 142.864ZM150.524 135.232V144H149.068V142.704C148.79 143.152 148.401 143.504 147.9 143.76C147.409 144.005 146.865 144.128 146.268 144.128C145.585 144.128 144.972 143.989 144.428 143.712C143.884 143.424 143.452 142.997 143.132 142.432C142.822 141.867 142.668 141.179 142.668 140.368V135.232H144.108V140.176C144.108 141.04 144.326 141.707 144.764 142.176C145.201 142.635 145.798 142.864 146.556 142.864C147.334 142.864 147.948 142.624 148.396 142.144C148.844 141.664 149.068 140.965 149.068 140.048V135.232H150.524ZM157.712 144.096C157.434 144.096 157.2 144 157.008 143.808C156.816 143.616 156.72 143.381 156.72 143.104C156.72 142.827 156.816 142.592 157.008 142.4C157.2 142.208 157.434 142.112 157.712 142.112C157.978 142.112 158.202 142.208 158.384 142.4C158.576 142.592 158.672 142.827 158.672 143.104C158.672 143.381 158.576 143.616 158.384 143.808C158.202 144 157.978 144.096 157.712 144.096ZM161.071 144.096C160.794 144.096 160.559 144 160.367 143.808C160.175 143.616 160.079 143.381 160.079 143.104C160.079 142.827 160.175 142.592 160.367 142.4C160.559 142.208 160.794 142.112 161.071 142.112C161.338 142.112 161.562 142.208 161.743 142.4C161.935 142.592 162.031 142.827 162.031 143.104C162.031 143.381 161.935 143.616 161.743 143.808C161.562 144 161.338 144.096 161.071 144.096Z" fill="black"/>
<path d="M164.984 227.808C164.707 227.808 164.472 227.712 164.28 227.52C164.088 227.328 163.992 227.093 163.992 226.816C163.992 226.539 164.088 226.304 164.28 226.112C164.472 225.92 164.707 225.824 164.984 225.824C165.251 225.824 165.475 225.92 165.656 226.112C165.848 226.304 165.944 226.539 165.944 226.816C165.944 227.093 165.848 227.328 165.656 227.52C165.475 227.712 165.251 227.808 164.984 227.808ZM165.688 229.232V238H164.232V229.232H165.688ZM168.394 226.848H170.01L168.474 230.48H167.45L168.394 226.848ZM182.214 229.072C182.896 229.072 183.504 229.216 184.038 229.504C184.571 229.781 184.992 230.203 185.302 230.768C185.611 231.333 185.766 232.021 185.766 232.832V238H184.326V233.04C184.326 232.165 184.107 231.499 183.67 231.04C183.243 230.571 182.662 230.336 181.926 230.336C181.168 230.336 180.566 230.581 180.118 231.072C179.67 231.552 179.446 232.251 179.446 233.168V238H178.006V233.04C178.006 232.165 177.787 231.499 177.35 231.04C176.923 230.571 176.342 230.336 175.606 230.336C174.848 230.336 174.246 230.581 173.798 231.072C173.35 231.552 173.126 232.251 173.126 233.168V238H171.67V229.232H173.126V230.496C173.414 230.037 173.798 229.685 174.278 229.44C174.768 229.195 175.307 229.072 175.894 229.072C176.63 229.072 177.28 229.237 177.846 229.568C178.411 229.899 178.832 230.384 179.11 231.024C179.355 230.405 179.76 229.925 180.326 229.584C180.891 229.243 181.52 229.072 182.214 229.072ZM195.988 230.432H194.148V238H192.692V230.432H191.556V229.232H192.692V228.608C192.692 227.627 192.942 226.912 193.444 226.464C193.956 226.005 194.772 225.776 195.891 225.776V226.992C195.252 226.992 194.798 227.12 194.532 227.376C194.276 227.621 194.148 228.032 194.148 228.608V229.232H195.988V230.432ZM198.437 227.808C198.16 227.808 197.925 227.712 197.733 227.52C197.541 227.328 197.445 227.093 197.445 226.816C197.445 226.539 197.541 226.304 197.733 226.112C197.925 225.92 198.16 225.824 198.437 225.824C198.704 225.824 198.928 225.92 199.109 226.112C199.301 226.304 199.397 226.539 199.397 226.816C199.397 227.093 199.301 227.328 199.109 227.52C198.928 227.712 198.704 227.808 198.437 227.808ZM199.141 229.232V238H197.685V229.232H199.141ZM205.895 229.072C206.961 229.072 207.825 229.397 208.487 230.048C209.148 230.688 209.479 231.616 209.479 232.832V238H208.039V233.04C208.039 232.165 207.82 231.499 207.383 231.04C206.945 230.571 206.348 230.336 205.591 230.336C204.823 230.336 204.209 230.576 203.751 231.056C203.303 231.536 203.079 232.235 203.079 233.152V238H201.623V229.232H203.079V230.48C203.367 230.032 203.756 229.685 204.247 229.44C204.748 229.195 205.297 229.072 205.895 229.072ZM219.857 233.28C219.857 233.557 219.841 233.851 219.809 234.16H212.801C212.854 235.024 213.148 235.701 213.681 236.192C214.225 236.672 214.881 236.912 215.649 236.912C216.278 236.912 216.801 236.768 217.217 236.48C217.644 236.181 217.942 235.787 218.113 235.296H219.681C219.446 236.139 218.977 236.827 218.273 237.36C217.569 237.883 216.694 238.144 215.649 238.144C214.817 238.144 214.07 237.957 213.409 237.584C212.758 237.211 212.246 236.683 211.873 236C211.5 235.307 211.313 234.507 211.313 233.6C211.313 232.693 211.494 231.899 211.857 231.216C212.22 230.533 212.726 230.011 213.377 229.648C214.038 229.275 214.796 229.088 215.649 229.088C216.481 229.088 217.217 229.269 217.857 229.632C218.497 229.995 218.988 230.496 219.329 231.136C219.681 231.765 219.857 232.48 219.857 233.28ZM218.353 232.976C218.353 232.421 218.23 231.947 217.985 231.552C217.74 231.147 217.404 230.843 216.977 230.64C216.561 230.427 216.097 230.32 215.585 230.32C214.849 230.32 214.22 230.555 213.697 231.024C213.185 231.493 212.892 232.144 212.817 232.976H218.353ZM227.549 235.984L225.757 240.288H224.78L225.949 235.984H227.549ZM237.834 229.072C238.495 229.072 239.093 229.216 239.626 229.504C240.159 229.781 240.575 230.203 240.874 230.768C241.183 231.333 241.338 232.021 241.338 232.832V238H239.898V233.04C239.898 232.165 239.679 231.499 239.242 231.04C238.805 230.571 238.207 230.336 237.45 230.336C236.682 230.336 236.069 230.576 235.61 231.056C235.162 231.536 234.938 232.235 234.938 233.152V238H233.482V226.16H234.938V230.48C235.226 230.032 235.621 229.685 236.122 229.44C236.634 229.195 237.205 229.072 237.834 229.072ZM247.54 238.144C246.719 238.144 245.972 237.957 245.3 237.584C244.639 237.211 244.116 236.683 243.732 236C243.359 235.307 243.172 234.507 243.172 233.6C243.172 232.704 243.364 231.915 243.748 231.232C244.143 230.539 244.676 230.011 245.348 229.648C246.02 229.275 246.772 229.088 247.604 229.088C248.436 229.088 249.188 229.275 249.86 229.648C250.532 230.011 251.06 230.533 251.444 231.216C251.839 231.899 252.036 232.693 252.036 233.6C252.036 234.507 251.834 235.307 251.428 236C251.034 236.683 250.495 237.211 249.812 237.584C249.13 237.957 248.372 238.144 247.54 238.144ZM247.54 236.864C248.063 236.864 248.554 236.741 249.012 236.496C249.471 236.251 249.839 235.883 250.116 235.392C250.404 234.901 250.548 234.304 250.548 233.6C250.548 232.896 250.41 232.299 250.132 231.808C249.855 231.317 249.492 230.955 249.044 230.72C248.596 230.475 248.111 230.352 247.588 230.352C247.055 230.352 246.564 230.475 246.116 230.72C245.679 230.955 245.327 231.317 245.06 231.808C244.794 232.299 244.66 232.896 244.66 233.6C244.66 234.315 244.788 234.917 245.044 235.408C245.311 235.899 245.663 236.267 246.1 236.512C246.538 236.747 247.018 236.864 247.54 236.864ZM265.631 229.232L262.895 238H261.391L259.279 231.04L257.167 238H255.663L252.911 229.232H254.399L256.415 236.592L258.591 229.232H260.079L262.207 236.608L264.191 229.232H265.631ZM270.797 233.584C270.797 232.688 270.979 231.904 271.341 231.232C271.704 230.549 272.2 230.021 272.829 229.648C273.469 229.275 274.179 229.088 274.957 229.088C275.725 229.088 276.392 229.253 276.957 229.584C277.523 229.915 277.944 230.331 278.221 230.832V229.232H279.693V238H278.221V236.368C277.933 236.88 277.501 237.307 276.925 237.648C276.36 237.979 275.699 238.144 274.941 238.144C274.163 238.144 273.459 237.952 272.829 237.568C272.2 237.184 271.704 236.645 271.341 235.952C270.979 235.259 270.797 234.469 270.797 233.584ZM278.221 233.6C278.221 232.939 278.088 232.363 277.821 231.872C277.555 231.381 277.192 231.008 276.733 230.752C276.285 230.485 275.789 230.352 275.245 230.352C274.701 230.352 274.205 230.48 273.757 230.736C273.309 230.992 272.952 231.365 272.685 231.856C272.419 232.347 272.285 232.923 272.285 233.584C272.285 234.256 272.419 234.843 272.685 235.344C272.952 235.835 273.309 236.213 273.757 236.48C274.205 236.736 274.701 236.864 275.245 236.864C275.789 236.864 276.285 236.736 276.733 236.48C277.192 236.213 277.555 235.835 277.821 235.344C278.088 234.843 278.221 234.261 278.221 233.6ZM283.61 230.656C283.866 230.155 284.229 229.765 284.698 229.488C285.178 229.211 285.759 229.072 286.442 229.072V230.576H286.058C284.426 230.576 283.61 231.461 283.61 233.232V238H282.154V229.232H283.61V230.656ZM296.123 233.28C296.123 233.557 296.107 233.851 296.075 234.16H289.067C289.12 235.024 289.413 235.701 289.947 236.192C290.491 236.672 291.147 236.912 291.915 236.912C292.544 236.912 293.067 236.768 293.483 236.48C293.909 236.181 294.208 235.787 294.379 235.296H295.947C295.712 236.139 295.243 236.827 294.539 237.36C293.835 237.883 292.96 238.144 291.915 238.144C291.083 238.144 290.336 237.957 289.675 237.584C289.024 237.211 288.512 236.683 288.139 236C287.765 235.307 287.579 234.507 287.579 233.6C287.579 232.693 287.76 231.899 288.123 231.216C288.485 230.533 288.992 230.011 289.643 229.648C290.304 229.275 291.061 229.088 291.915 229.088C292.747 229.088 293.483 229.269 294.123 229.632C294.763 229.995 295.253 230.496 295.595 231.136C295.947 231.765 296.123 232.48 296.123 233.28ZM294.619 232.976C294.619 232.421 294.496 231.947 294.251 231.552C294.005 231.147 293.669 230.843 293.243 230.64C292.827 230.427 292.363 230.32 291.851 230.32C291.115 230.32 290.485 230.555 289.963 231.024C289.451 231.493 289.157 232.144 289.083 232.976H294.619ZM309.862 229.232L304.582 242.128H303.078L304.806 237.904L301.27 229.232H302.886L305.638 236.336L308.358 229.232H309.862ZM315.15 238.144C314.328 238.144 313.582 237.957 312.91 237.584C312.248 237.211 311.726 236.683 311.342 236C310.968 235.307 310.782 234.507 310.782 233.6C310.782 232.704 310.974 231.915 311.358 231.232C311.752 230.539 312.286 230.011 312.958 229.648C313.63 229.275 314.382 229.088 315.214 229.088C316.046 229.088 316.798 229.275 317.47 229.648C318.142 230.011 318.67 230.533 319.054 231.216C319.448 231.899 319.646 232.693 319.646 233.6C319.646 234.507 319.443 235.307 319.038 236C318.643 236.683 318.104 237.211 317.422 237.584C316.739 237.957 315.982 238.144 315.15 238.144ZM315.15 236.864C315.672 236.864 316.163 236.741 316.622 236.496C317.08 236.251 317.448 235.883 317.726 235.392C318.014 234.901 318.158 234.304 318.158 233.6C318.158 232.896 318.019 232.299 317.742 231.808C317.464 231.317 317.102 230.955 316.654 230.72C316.206 230.475 315.72 230.352 315.198 230.352C314.664 230.352 314.174 230.475 313.726 230.72C313.288 230.955 312.936 231.317 312.67 231.808C312.403 232.299 312.27 232.896 312.27 233.6C312.27 234.315 312.398 234.917 312.654 235.408C312.92 235.899 313.272 236.267 313.71 236.512C314.147 236.747 314.627 236.864 315.15 236.864ZM329.336 229.232V238H327.88V236.704C327.603 237.152 327.213 237.504 326.712 237.76C326.221 238.005 325.677 238.128 325.08 238.128C324.397 238.128 323.784 237.989 323.24 237.712C322.696 237.424 322.264 236.997 321.944 236.432C321.635 235.867 321.48 235.179 321.48 234.368V229.232H322.92V234.176C322.92 235.04 323.139 235.707 323.576 236.176C324.013 236.635 324.611 236.864 325.368 236.864C326.147 236.864 326.76 236.624 327.208 236.144C327.656 235.664 327.88 234.965 327.88 234.048V229.232H329.336Z" fill="white"/>
<path d="M309.413 271.32V270.324H311.669V279H310.565V271.32H309.413ZM313.545 274.572C313.545 273.196 313.769 272.124 314.217 271.356C314.665 270.58 315.449 270.192 316.569 270.192C317.681 270.192 318.461 270.58 318.909 271.356C319.357 272.124 319.581 273.196 319.581 274.572C319.581 275.972 319.357 277.06 318.909 277.836C318.461 278.612 317.681 279 316.569 279C315.449 279 314.665 278.612 314.217 277.836C313.769 277.06 313.545 275.972 313.545 274.572ZM318.501 274.572C318.501 273.876 318.453 273.288 318.357 272.808C318.269 272.32 318.081 271.928 317.793 271.632C317.513 271.336 317.105 271.188 316.569 271.188C316.025 271.188 315.609 271.336 315.321 271.632C315.041 271.928 314.853 272.32 314.757 272.808C314.669 273.288 314.625 273.876 314.625 274.572C314.625 275.292 314.669 275.896 314.757 276.384C314.853 276.872 315.041 277.264 315.321 277.56C315.609 277.856 316.025 278.004 316.569 278.004C317.105 278.004 317.513 277.856 317.793 277.56C318.081 277.264 318.269 276.872 318.357 276.384C318.453 275.896 318.501 275.292 318.501 274.572ZM321.608 279.072C321.4 279.072 321.224 279 321.08 278.856C320.936 278.712 320.864 278.536 320.864 278.328C320.864 278.12 320.936 277.944 321.08 277.8C321.224 277.656 321.4 277.584 321.608 277.584C321.808 277.584 321.976 277.656 322.112 277.8C322.256 277.944 322.328 278.12 322.328 278.328C322.328 278.536 322.256 278.712 322.112 278.856C321.976 279 321.808 279.072 321.608 279.072ZM321.608 273.936C321.4 273.936 321.224 273.864 321.08 273.72C320.936 273.576 320.864 273.4 320.864 273.192C320.864 272.984 320.936 272.808 321.08 272.664C321.224 272.52 321.4 272.448 321.608 272.448C321.808 272.448 321.976 272.52 322.112 272.664C322.256 272.808 322.328 272.984 322.328 273.192C322.328 273.4 322.256 273.576 322.112 273.72C321.976 273.864 321.808 273.936 321.608 273.936ZM323.635 274.572C323.635 273.196 323.859 272.124 324.307 271.356C324.755 270.58 325.539 270.192 326.659 270.192C327.771 270.192 328.551 270.58 328.999 271.356C329.447 272.124 329.671 273.196 329.671 274.572C329.671 275.972 329.447 277.06 328.999 277.836C328.551 278.612 327.771 279 326.659 279C325.539 279 324.755 278.612 324.307 277.836C323.859 277.06 323.635 275.972 323.635 274.572ZM328.591 274.572C328.591 273.876 328.543 273.288 328.447 272.808C328.359 272.32 328.171 271.928 327.883 271.632C327.603 271.336 327.195 271.188 326.659 271.188C326.115 271.188 325.699 271.336 325.411 271.632C325.131 271.928 324.943 272.32 324.847 272.808C324.759 273.288 324.715 273.876 324.715 274.572C324.715 275.292 324.759 275.896 324.847 276.384C324.943 276.872 325.131 277.264 325.411 277.56C325.699 277.856 326.115 278.004 326.659 278.004C327.195 278.004 327.603 277.856 327.883 277.56C328.171 277.264 328.359 276.872 328.447 276.384C328.543 275.896 328.591 275.292 328.591 274.572ZM331.038 278.124C332.054 277.308 332.85 276.64 333.426 276.12C334.002 275.592 334.486 275.044 334.878 274.476C335.278 273.9 335.478 273.336 335.478 272.784C335.478 272.264 335.35 271.856 335.094 271.56C334.846 271.256 334.442 271.104 333.882 271.104C333.338 271.104 332.914 271.276 332.61 271.62C332.314 271.956 332.154 272.408 332.13 272.976H331.074C331.106 272.08 331.378 271.388 331.89 270.9C332.402 270.412 333.062 270.168 333.87 270.168C334.694 270.168 335.346 270.396 335.826 270.852C336.314 271.308 336.558 271.936 336.558 272.736C336.558 273.4 336.358 274.048 335.958 274.68C335.566 275.304 335.118 275.856 334.614 276.336C334.11 276.808 333.466 277.36 332.682 277.992H336.81V278.904H331.038V278.124ZM341.043 275.688C341.043 275.016 341.179 274.428 341.451 273.924C341.723 273.412 342.095 273.016 342.567 272.736C343.047 272.456 343.579 272.316 344.163 272.316C344.739 272.316 345.239 272.44 345.663 272.688C346.087 272.936 346.403 273.248 346.611 273.624V272.424H347.715V279H346.611V277.776C346.395 278.16 346.071 278.48 345.639 278.736C345.215 278.984 344.719 279.108 344.151 279.108C343.567 279.108 343.039 278.964 342.567 278.676C342.095 278.388 341.723 277.984 341.451 277.464C341.179 276.944 341.043 276.352 341.043 275.688ZM346.611 275.7C346.611 275.204 346.511 274.772 346.311 274.404C346.111 274.036 345.839 273.756 345.495 273.564C345.159 273.364 344.787 273.264 344.379 273.264C343.971 273.264 343.599 273.36 343.263 273.552C342.927 273.744 342.659 274.024 342.459 274.392C342.259 274.76 342.159 275.192 342.159 275.688C342.159 276.192 342.259 276.632 342.459 277.008C342.659 277.376 342.927 277.66 343.263 277.86C343.599 278.052 343.971 278.148 344.379 278.148C344.787 278.148 345.159 278.052 345.495 277.86C345.839 277.66 346.111 277.376 346.311 277.008C346.511 276.632 346.611 276.196 346.611 275.7ZM357.469 272.304C357.981 272.304 358.437 272.412 358.837 272.628C359.237 272.836 359.553 273.152 359.785 273.576C360.017 274 360.133 274.516 360.133 275.124V279H359.053V275.28C359.053 274.624 358.889 274.124 358.561 273.78C358.241 273.428 357.805 273.252 357.253 273.252C356.685 273.252 356.233 273.436 355.897 273.804C355.561 274.164 355.393 274.688 355.393 275.376V279H354.313V275.28C354.313 274.624 354.149 274.124 353.821 273.78C353.501 273.428 353.065 273.252 352.513 273.252C351.945 273.252 351.493 273.436 351.157 273.804C350.821 274.164 350.653 274.688 350.653 275.376V279H349.561V272.424H350.653V273.372C350.869 273.028 351.157 272.764 351.517 272.58C351.885 272.396 352.289 272.304 352.729 272.304C353.281 272.304 353.769 272.428 354.193 272.676C354.617 272.924 354.933 273.288 355.141 273.768C355.325 273.304 355.629 272.944 356.053 272.688C356.477 272.432 356.949 272.304 357.469 272.304Z" fill="#747474"/>
<path d="M16.456 176.32V175.324H18.712V184H17.608V176.32H16.456ZM20.5878 179.572C20.5878 178.196 20.8118 177.124 21.2598 176.356C21.7078 175.58 22.4918 175.192 23.6118 175.192C24.7238 175.192 25.5038 175.58 25.9518 176.356C26.3997 177.124 26.6237 178.196 26.6237 179.572C26.6237 180.972 26.3997 182.06 25.9518 182.836C25.5038 183.612 24.7238 184 23.6118 184C22.4918 184 21.7078 183.612 21.2598 182.836C20.8118 182.06 20.5878 180.972 20.5878 179.572ZM25.5438 179.572C25.5438 178.876 25.4958 178.288 25.3998 177.808C25.3118 177.32 25.1238 176.928 24.8358 176.632C24.5558 176.336 24.1478 176.188 23.6118 176.188C23.0678 176.188 22.6518 176.336 22.3638 176.632C22.0838 176.928 21.8958 177.32 21.7998 177.808C21.7118 178.288 21.6678 178.876 21.6678 179.572C21.6678 180.292 21.7118 180.896 21.7998 181.384C21.8958 181.872 22.0838 182.264 22.3638 182.56C22.6518 182.856 23.0678 183.004 23.6118 183.004C24.1478 183.004 24.5558 182.856 24.8358 182.56C25.1238 182.264 25.3118 181.872 25.3998 181.384C25.4958 180.896 25.5438 180.292 25.5438 179.572ZM28.6509 184.072C28.4429 184.072 28.2669 184 28.1229 183.856C27.9789 183.712 27.9069 183.536 27.9069 183.328C27.9069 183.12 27.9789 182.944 28.1229 182.8C28.2669 182.656 28.4429 182.584 28.6509 182.584C28.8509 182.584 29.0189 182.656 29.1549 182.8C29.2989 182.944 29.3709 183.12 29.3709 183.328C29.3709 183.536 29.2989 183.712 29.1549 183.856C29.0189 184 28.8509 184.072 28.6509 184.072ZM28.6509 178.936C28.4429 178.936 28.2669 178.864 28.1229 178.72C27.9789 178.576 27.9069 178.4 27.9069 178.192C27.9069 177.984 27.9789 177.808 28.1229 177.664C28.2669 177.52 28.4429 177.448 28.6509 177.448C28.8509 177.448 29.0189 177.52 29.1549 177.664C29.2989 177.808 29.3709 177.984 29.3709 178.192C29.3709 178.4 29.2989 178.576 29.1549 178.72C29.0189 178.864 28.8509 178.936 28.6509 178.936ZM30.6776 179.572C30.6776 178.196 30.9016 177.124 31.3496 176.356C31.7976 175.58 32.5816 175.192 33.7016 175.192C34.8136 175.192 35.5936 175.58 36.0416 176.356C36.4896 177.124 36.7136 178.196 36.7136 179.572C36.7136 180.972 36.4896 182.06 36.0416 182.836C35.5936 183.612 34.8136 184 33.7016 184C32.5816 184 31.7976 183.612 31.3496 182.836C30.9016 182.06 30.6776 180.972 30.6776 179.572ZM35.6336 179.572C35.6336 178.876 35.5856 178.288 35.4896 177.808C35.4016 177.32 35.2136 176.928 34.9256 176.632C34.6456 176.336 34.2376 176.188 33.7016 176.188C33.1576 176.188 32.7416 176.336 32.4536 176.632C32.1736 176.928 31.9856 177.32 31.8896 177.808C31.8016 178.288 31.7576 178.876 31.7576 179.572C31.7576 180.292 31.8016 180.896 31.8896 181.384C31.9856 181.872 32.1736 182.264 32.4536 182.56C32.7416 182.856 33.1576 183.004 33.7016 183.004C34.2376 183.004 34.6456 182.856 34.9256 182.56C35.2136 182.264 35.4016 181.872 35.4896 181.384C35.5856 180.896 35.6336 180.292 35.6336 179.572ZM38.2128 179.572C38.2128 178.196 38.4368 177.124 38.8848 176.356C39.3328 175.58 40.1168 175.192 41.2368 175.192C42.3488 175.192 43.1288 175.58 43.5768 176.356C44.0247 177.124 44.2487 178.196 44.2487 179.572C44.2487 180.972 44.0247 182.06 43.5768 182.836C43.1288 183.612 42.3488 184 41.2368 184C40.1168 184 39.3328 183.612 38.8848 182.836C38.4368 182.06 38.2128 180.972 38.2128 179.572ZM43.1688 179.572C43.1688 178.876 43.1208 178.288 43.0248 177.808C42.9368 177.32 42.7488 176.928 42.4608 176.632C42.1808 176.336 41.7728 176.188 41.2368 176.188C40.6928 176.188 40.2768 176.336 39.9888 176.632C39.7088 176.928 39.5208 177.32 39.4248 177.808C39.3368 178.288 39.2928 178.876 39.2928 179.572C39.2928 180.292 39.3368 180.896 39.4248 181.384C39.5208 181.872 39.7088 182.264 39.9888 182.56C40.2768 182.856 40.6928 183.004 41.2368 183.004C41.7728 183.004 42.1808 182.856 42.4608 182.56C42.7488 182.264 42.9368 181.872 43.0248 181.384C43.1208 180.896 43.1688 180.292 43.1688 179.572ZM48.7191 180.688C48.7191 180.016 48.8551 179.428 49.1271 178.924C49.3991 178.412 49.7711 178.016 50.2431 177.736C50.7231 177.456 51.2551 177.316 51.8391 177.316C52.4151 177.316 52.9151 177.44 53.3391 177.688C53.7631 177.936 54.0791 178.248 54.2871 178.624V177.424H55.3911V184H54.2871V182.776C54.0711 183.16 53.7471 183.48 53.3151 183.736C52.8911 183.984 52.3951 184.108 51.8271 184.108C51.2431 184.108 50.7151 183.964 50.2431 183.676C49.7711 183.388 49.3991 182.984 49.1271 182.464C48.8551 181.944 48.7191 181.352 48.7191 180.688ZM54.2871 180.7C54.2871 180.204 54.1871 179.772 53.9871 179.404C53.7871 179.036 53.5151 178.756 53.1711 178.564C52.8351 178.364 52.4631 178.264 52.0551 178.264C51.6471 178.264 51.2751 178.36 50.9391 178.552C50.6031 178.744 50.3351 179.024 50.1351 179.392C49.9351 179.76 49.8351 180.192 49.8351 180.688C49.8351 181.192 49.9351 181.632 50.1351 182.008C50.3351 182.376 50.6031 182.66 50.9391 182.86C51.2751 183.052 51.6471 183.148 52.0551 183.148C52.4631 183.148 52.8351 183.052 53.1711 182.86C53.5151 182.66 53.7871 182.376 53.9871 182.008C54.1871 181.632 54.2871 181.196 54.2871 180.7ZM65.1445 177.304C65.6565 177.304 66.1125 177.412 66.5125 177.628C66.9125 177.836 67.2285 178.152 67.4605 178.576C67.6925 179 67.8085 179.516 67.8085 180.124V184H66.7285V180.28C66.7285 179.624 66.5645 179.124 66.2365 178.78C65.9165 178.428 65.4805 178.252 64.9285 178.252C64.3605 178.252 63.9085 178.436 63.5725 178.804C63.2365 179.164 63.0685 179.688 63.0685 180.376V184H61.9885V180.28C61.9885 179.624 61.8245 179.124 61.4965 178.78C61.1765 178.428 60.7405 178.252 60.1885 178.252C59.6205 178.252 59.1685 178.436 58.8325 178.804C58.4965 179.164 58.3285 179.688 58.3285 180.376V184H57.2365V177.424H58.3285V178.372C58.5445 178.028 58.8325 177.764 59.1925 177.58C59.5605 177.396 59.9645 177.304 60.4045 177.304C60.9565 177.304 61.4445 177.428 61.8685 177.676C62.2925 177.924 62.6085 178.288 62.8165 178.768C63.0005 178.304 63.3045 177.944 63.7285 177.688C64.1525 177.432 64.6245 177.304 65.1445 177.304Z" fill="#747474"/>
<g filter="url(#filter0_d_66_1168)">
<rect width="375" height="56" transform="translate(0 36)" fill="#FEFEFE"/>
<rect x="16" y="46" width="36" height="36" rx="8" fill="white"/>
<path d="M24.3638 64.6363L30.6638 70.9363C30.8336 71.1002 31.0609 71.1909 31.2969 71.1889C31.5329 71.1868 31.7586 71.0922 31.9255 70.9253C32.0924 70.7584 32.187 70.5327 32.1891 70.2967C32.1911 70.0607 32.1004 69.8334 31.9364 69.6637L27.1727 64.9H43.0001C43.2388 64.9 43.4678 64.8052 43.6365 64.6364C43.8053 64.4676 43.9001 64.2387 43.9001 64C43.9001 63.7613 43.8053 63.5324 43.6365 63.3636C43.4678 63.1948 43.2388 63.1 43.0001 63.1H27.1727L31.9364 58.3363C32.0224 58.2533 32.091 58.154 32.1381 58.0442C32.1853 57.9343 32.2101 57.8162 32.2112 57.6967C32.2122 57.5772 32.1894 57.4587 32.1442 57.3481C32.0989 57.2375 32.0321 57.137 31.9476 57.0525C31.8631 56.968 31.7626 56.9012 31.652 56.8559C31.5414 56.8107 31.4229 56.7879 31.3034 56.789C31.1839 56.79 31.0658 56.8148 30.956 56.862C30.8462 56.9092 30.7469 56.9777 30.6638 57.0637L24.3638 63.3637C24.1951 63.5325 24.1003 63.7613 24.1003 64C24.1003 64.2386 24.1951 64.4675 24.3638 64.6363Z" fill="#364545"/>
<path d="M126.953 58.768V70H124.217V62.976L121.785 70H119.417L116.969 62.96V70H114.233V58.768H117.577L120.633 66.592L123.625 58.768H126.953ZM132.234 60.96C132.917 60.96 133.504 61.1147 133.994 61.424C134.485 61.7333 134.848 62.1547 135.082 62.688V61.072H137.802V70H135.082V68.384C134.848 68.9173 134.485 69.3387 133.994 69.648C133.504 69.9573 132.917 70.112 132.234 70.112C131.498 70.112 130.837 69.9307 130.25 69.568C129.674 69.1947 129.216 68.6613 128.874 67.968C128.544 67.2747 128.378 66.464 128.378 65.536C128.378 64.5973 128.544 63.7867 128.874 63.104C129.216 62.4107 129.674 61.8827 130.25 61.52C130.837 61.1467 131.498 60.96 132.234 60.96ZM133.114 63.36C132.528 63.36 132.053 63.552 131.69 63.936C131.338 64.32 131.162 64.8533 131.162 65.536C131.162 66.2187 131.338 66.752 131.69 67.136C132.053 67.52 132.528 67.712 133.114 67.712C133.69 67.712 134.16 67.5147 134.522 67.12C134.896 66.7253 135.082 66.1973 135.082 65.536C135.082 64.864 134.896 64.336 134.522 63.952C134.16 63.5573 133.69 63.36 133.114 63.36ZM145.35 60.976C146.374 60.976 147.185 61.3173 147.782 62C148.39 62.6827 148.694 63.6213 148.694 64.816V70H145.958V65.136C145.958 64.5387 145.798 64.0747 145.478 63.744C145.169 63.4027 144.753 63.232 144.23 63.232C143.676 63.232 143.233 63.408 142.902 63.76C142.582 64.112 142.422 64.6133 142.422 65.264V70H139.686V58.16H142.422V62.704C142.678 62.1707 143.057 61.7493 143.558 61.44C144.07 61.1307 144.668 60.976 145.35 60.976ZM162.067 60.976C163.165 60.976 164.029 61.3173 164.659 62C165.288 62.672 165.603 63.6107 165.603 64.816V70H162.883V65.136C162.883 64.5707 162.728 64.1333 162.419 63.824C162.12 63.504 161.709 63.344 161.187 63.344C160.643 63.344 160.211 63.5147 159.891 63.856C159.581 64.1867 159.427 64.656 159.427 65.264V70H156.691V65.136C156.691 64.5707 156.541 64.1333 156.243 63.824C155.944 63.504 155.533 63.344 155.011 63.344C154.467 63.344 154.035 63.5093 153.715 63.84C153.395 64.1707 153.235 64.6453 153.235 65.264V70H150.499V61.072H153.235V62.592C153.469 62.0907 153.827 61.696 154.307 61.408C154.797 61.12 155.368 60.976 156.019 60.976C156.701 60.976 157.304 61.136 157.827 61.456C158.349 61.7653 158.744 62.2133 159.011 62.8C159.32 62.2453 159.741 61.8027 160.275 61.472C160.819 61.1413 161.416 60.976 162.067 60.976ZM171.597 60.96C172.482 60.96 173.271 61.1467 173.965 61.52C174.669 61.8827 175.218 62.4107 175.613 63.104C176.018 63.7973 176.221 64.608 176.221 65.536C176.221 66.464 176.018 67.2747 175.613 67.968C175.218 68.6613 174.669 69.1947 173.965 69.568C173.271 69.9307 172.482 70.112 171.597 70.112C170.711 70.112 169.917 69.9307 169.213 69.568C168.509 69.1947 167.954 68.6613 167.549 67.968C167.154 67.2747 166.957 66.464 166.957 65.536C166.957 64.608 167.154 63.7973 167.549 63.104C167.954 62.4107 168.509 61.8827 169.213 61.52C169.917 61.1467 170.711 60.96 171.597 60.96ZM171.597 63.328C171.074 63.328 170.631 63.52 170.269 63.904C169.917 64.2773 169.741 64.8213 169.741 65.536C169.741 66.2507 169.917 66.7947 170.269 67.168C170.631 67.5413 171.074 67.728 171.597 67.728C172.119 67.728 172.557 67.5413 172.909 67.168C173.261 66.7947 173.437 66.2507 173.437 65.536C173.437 64.8213 173.261 64.2773 172.909 63.904C172.557 63.52 172.119 63.328 171.597 63.328ZM186.519 61.072V70H183.767V68.384C183.511 68.9067 183.127 69.3227 182.615 69.632C182.114 69.9413 181.527 70.096 180.855 70.096C179.831 70.096 179.015 69.7547 178.407 69.072C177.81 68.3893 177.511 67.4507 177.511 66.256V61.072H180.231V65.92C180.231 66.528 180.386 67.0027 180.695 67.344C181.015 67.6747 181.442 67.84 181.975 67.84C182.53 67.84 182.967 67.664 183.287 67.312C183.607 66.96 183.767 66.4587 183.767 65.808V61.072H186.519ZM191.797 60.96C192.48 60.96 193.066 61.1147 193.557 61.424C194.048 61.7333 194.405 62.1547 194.629 62.688V58.16H197.365V70H194.629V68.384C194.405 68.9173 194.048 69.3387 193.557 69.648C193.066 69.9573 192.48 70.112 191.797 70.112C191.061 70.112 190.4 69.9307 189.813 69.568C189.237 69.1947 188.778 68.6613 188.437 67.968C188.106 67.2747 187.941 66.464 187.941 65.536C187.941 64.5973 188.106 63.7867 188.437 63.104C188.778 62.4107 189.237 61.8827 189.813 61.52C190.4 61.1467 191.061 60.96 191.797 60.96ZM192.677 63.36C192.09 63.36 191.616 63.552 191.253 63.936C190.901 64.32 190.725 64.8533 190.725 65.536C190.725 66.2187 190.901 66.752 191.253 67.136C191.616 67.52 192.09 67.712 192.677 67.712C193.253 67.712 193.722 67.5147 194.085 67.12C194.458 66.7253 194.645 66.1973 194.645 65.536C194.645 64.864 194.458 64.336 194.085 63.952C193.722 63.5573 193.253 63.36 192.677 63.36ZM205.188 60.864V63.232H209.012V65.296H205.188V67.808H209.492V70H202.452V58.688H209.492V60.864H205.188ZM213.782 58.16V70H211.046V58.16H213.782ZM221.079 70L218.407 66.208V70H215.671V58.16H218.407V64.656L221.079 61.072H224.295L220.695 65.536L224.375 70H221.079ZM229.55 60.96C230.435 60.96 231.224 61.1467 231.918 61.52C232.622 61.8827 233.171 62.4107 233.566 63.104C233.971 63.7973 234.174 64.608 234.174 65.536C234.174 66.464 233.971 67.2747 233.566 67.968C233.171 68.6613 232.622 69.1947 231.918 69.568C231.224 69.9307 230.435 70.112 229.55 70.112C228.664 70.112 227.87 69.9307 227.166 69.568C226.462 69.1947 225.907 68.6613 225.502 67.968C225.107 67.2747 224.91 66.464 224.91 65.536C224.91 64.608 225.107 63.7973 225.502 63.104C225.907 62.4107 226.462 61.8827 227.166 61.52C227.87 61.1467 228.664 60.96 229.55 60.96ZM229.55 63.328C229.027 63.328 228.584 63.52 228.222 63.904C227.87 64.2773 227.694 64.8213 227.694 65.536C227.694 66.2507 227.87 66.7947 228.222 67.168C228.584 67.5413 229.027 67.728 229.55 67.728C230.072 67.728 230.51 67.5413 230.862 67.168C231.214 66.7947 231.39 66.2507 231.39 65.536C231.39 64.8213 231.214 64.2773 230.862 63.904C230.51 63.52 230.072 63.328 229.55 63.328ZM247.16 60.976C248.259 60.976 249.123 61.3173 249.752 62C250.382 62.672 250.696 63.6107 250.696 64.816V70H247.976V65.136C247.976 64.5707 247.822 64.1333 247.512 63.824C247.214 63.504 246.803 63.344 246.28 63.344C245.736 63.344 245.304 63.5147 244.984 63.856C244.675 64.1867 244.52 64.656 244.52 65.264V70H241.784V65.136C241.784 64.5707 241.635 64.1333 241.336 63.824C241.038 63.504 240.627 63.344 240.104 63.344C239.56 63.344 239.128 63.5093 238.808 63.84C238.488 64.1707 238.328 64.6453 238.328 65.264V70H235.592V61.072H238.328V62.592C238.563 62.0907 238.92 61.696 239.4 61.408C239.891 61.12 240.462 60.976 241.112 60.976C241.795 60.976 242.398 61.136 242.92 61.456C243.443 61.7653 243.838 62.2133 244.104 62.8C244.414 62.2453 244.835 61.8027 245.368 61.472C245.912 61.1413 246.51 60.976 247.16 60.976ZM254.578 61.072L256.722 66.544L258.722 61.072H261.746L256.178 74.256H253.17L255.266 69.664L251.522 61.072H254.578Z" fill="#110101"/>
</g>
<g filter="url(#filter1_b_66_1168)">
<rect width="375" height="36" fill="white"/>
<path d="M23.6142 20.245C23.7542 21.115 24.1942 21.55 24.9342 21.55C25.5142 21.55 25.9192 21.285 26.1492 20.755C26.3892 20.225 26.4992 19.4 26.4792 18.28C26.3092 18.69 26.0142 19.015 25.5942 19.255C25.1842 19.485 24.7042 19.6 24.1542 19.6C23.1542 19.6 22.3642 19.3 21.7842 18.7C21.2042 18.09 20.9142 17.22 20.9142 16.09C20.9142 15.38 21.0592 14.75 21.3492 14.2C21.6392 13.65 22.0642 13.225 22.6242 12.925C23.1942 12.615 23.8742 12.46 24.6642 12.46C25.7342 12.46 26.5692 12.685 27.1692 13.135C27.7692 13.585 28.1842 14.2 28.4142 14.98C28.6442 15.75 28.7592 16.68 28.7592 17.77C28.7592 19.69 28.4642 21.145 27.8742 22.135C27.2942 23.115 26.3142 23.605 24.9342 23.605C24.1742 23.605 23.5192 23.455 22.9692 23.155C22.4292 22.845 22.0092 22.435 21.7092 21.925C21.4192 21.415 21.2542 20.855 21.2142 20.245H23.6142ZM26.2842 16.21C26.2842 15.75 26.1542 15.38 25.8942 15.1C25.6342 14.81 25.2542 14.665 24.7542 14.665C24.3042 14.665 23.9492 14.79 23.6892 15.04C23.4392 15.29 23.3142 15.655 23.3142 16.135C23.3142 16.615 23.4442 16.985 23.7042 17.245C23.9642 17.495 24.3192 17.62 24.7692 17.62C25.1992 17.62 25.5592 17.5 25.8492 17.26C26.1392 17.01 26.2842 16.66 26.2842 16.21ZM32.4997 14.83V17.395H29.8297V14.83H32.4997ZM32.4997 20.935V23.5H29.8297V20.935H32.4997ZM33.3565 21.46C36.5365 19.19 38.1265 17.385 38.1265 16.045C38.1265 15.225 37.7715 14.815 37.0615 14.815C36.6615 14.815 36.3665 14.955 36.1765 15.235C35.9965 15.515 35.8965 15.95 35.8765 16.54H33.3715C33.4315 15.25 33.8215 14.28 34.5415 13.63C35.2615 12.98 36.1715 12.655 37.2715 12.655C38.4215 12.655 39.2865 12.945 39.8665 13.525C40.4565 14.105 40.7515 14.86 40.7515 15.79C40.7515 16.82 40.3565 17.83 39.5665 18.82C38.7765 19.8 37.8315 20.63 36.7315 21.31H40.9165V23.38H33.3565V21.46ZM48.3893 14.695L44.5943 23.5H41.9393L45.7793 14.995H41.2793V12.79H48.3893V14.695Z" fill="#364545"/>
<g clip-path="url(#clip2_66_1168)">
<path d="M76.0792 10.0515L61.4144 16.0507C60.7976 16.303 60.8919 17.2043 61.5475 17.3235L68.4259 18.5741L69.6765 25.4525C69.7957 26.1081 70.697 26.2024 70.9493 25.5857L76.9486 10.9208C77.1723 10.3738 76.6262 9.82764 76.0792 10.0515ZM70.5798 22.9679L69.655 17.8816C69.6053 17.6084 69.3916 17.3946 69.1184 17.345L64.0321 16.4202L75.1128 11.8872L70.5798 22.9679Z" fill="#364545"/>
</g>
<rect opacity="0.35" x="330.5" y="12.8333" width="21" height="10.3333" rx="2.16667" stroke="#364545"/>
<path opacity="0.4" d="M353 16V20C353.808 19.6612 354.333 18.8731 354.333 18C354.333 17.1269 353.808 16.3388 353 16Z" fill="#364545"/>
<rect x="332" y="14.3333" width="18" height="7.33333" rx="1.33333" fill="#364545"/>
<path fill-rule="evenodd" clip-rule="evenodd" d="M317.334 14.5739C319.559 14.574 321.698 15.4117 323.311 16.9138C323.432 17.0298 323.626 17.0283 323.746 16.9105L324.906 15.7627C324.967 15.703 325.001 15.622 325 15.5378C325 15.4536 324.965 15.3731 324.904 15.3141C320.672 11.3397 313.995 11.3397 309.763 15.3141C309.702 15.3731 309.667 15.4536 309.667 15.5378C309.666 15.622 309.7 15.7029 309.76 15.7627L310.921 16.9105C311.041 17.0285 311.235 17.03 311.356 16.9138C312.969 15.4116 315.109 14.5739 317.334 14.5739ZM317.332 18.2994C318.556 18.2994 319.736 18.756 320.643 19.5805C320.766 19.6975 320.959 19.695 321.079 19.5748L322.239 18.3976C322.3 18.3359 322.334 18.2521 322.333 18.1651C322.333 18.0781 322.297 17.995 322.235 17.9345C319.472 15.3551 315.195 15.3551 312.432 17.9345C312.37 17.995 312.334 18.0781 312.333 18.1652C312.333 18.2522 312.367 18.336 312.428 18.3976L313.588 19.5748C313.708 19.695 313.901 19.6975 314.024 19.5805C314.93 18.7565 316.109 18.2999 317.332 18.2994ZM319.667 21.023C319.668 21.1085 319.634 21.1909 319.572 21.2507L317.557 23.2419C317.498 23.3004 317.418 23.3333 317.334 23.3333C317.249 23.3333 317.169 23.3004 317.11 23.2419L315.095 21.2507C315.033 21.1908 314.998 21.1084 315 21.023C315.002 20.9375 315.04 20.8566 315.105 20.7993C316.391 19.7335 318.276 19.7335 319.562 20.7993C319.627 20.8566 319.665 20.9376 319.667 21.023Z" fill="#364545"/>
<path fill-rule="evenodd" clip-rule="evenodd" d="M304.667 13.6667C304.667 13.1144 304.219 12.6667 303.667 12.6667H302.667C302.114 12.6667 301.667 13.1144 301.667 13.6667V22.3334C301.667 22.8856 302.114 23.3334 302.667 23.3334H303.667C304.219 23.3334 304.667 22.8856 304.667 22.3334V13.6667ZM298 15H299C299.552 15 300 15.4477 300 16V22.3334C300 22.8856 299.552 23.3334 299 23.3334H298C297.448 23.3334 297 22.8856 297 22.3334V16C297 15.4477 297.448 15 298 15ZM294.333 17.3334H293.333C292.781 17.3334 292.333 17.7811 292.333 18.3334V22.3334C292.333 22.8856 292.781 23.3334 293.333 23.3334H294.333C294.886 23.3334 295.333 22.8856 295.333 22.3334V18.3334C295.333 17.7811 294.886 17.3334 294.333 17.3334ZM290.667 20.3334C290.667 19.7811 290.219 19.3334 289.667 19.3334H288.667C288.114 19.3334 287.667 19.7811 287.667 20.3334V22.3334C287.667 22.8856 288.114 23.3334 288.667 23.3334H289.667C290.219 23.3334 290.667 22.8856 290.667 22.3334V20.3334Z" fill="#364545"/>
</g>
</g>
<defs>
<filter id="filter0_d_66_1168" x="-24" y="16" width="423" height="104" filterUnits="userSpaceOnUse" color-interpolation-filters="sRGB">
<feFlood flood-opacity="0" result="BackgroundImageFix"/>
<feColorMatrix in="SourceAlpha" type="matrix" values="0 0 0 0 0 0 0 0 0 0 0 0 0 0 0 0 0 0 127 0" result="hardAlpha"/>
<feOffset dy="4"/>
<feGaussianBlur stdDeviation="12"/>
<feComposite in2="hardAlpha" operator="out"/>
<feColorMatrix type="matrix" values="0 0 0 0 0 0 0 0 0 0 0 0 0 0 0 0 0 0 0.1 0"/>
<feBlend mode="normal" in2="BackgroundImageFix" result="effect1_dropShadow_66_1168"/>
<feBlend mode="normal" in="SourceGraphic" in2="effect1_dropShadow_66_1168" result="shape"/>
</filter>
<filter id="filter1_b_66_1168" x="-4" y="-4" width="383" height="44" filterUnits="userSpaceOnUse" color-interpolation-filters="sRGB">
<feFlood flood-opacity="0" result="BackgroundImageFix"/>
<feGaussianBlur in="BackgroundImage" stdDeviation="2"/>
<feComposite in2="SourceAlpha" operator="in" result="effect1_backgroundBlur_66_1168"/>
<feBlend mode="normal" in="SourceGraphic" in2="effect1_backgroundBlur_66_1168" result="shape"/>
</filter>
<clipPath id="clip0_66_1168">
<rect width="375" height="812" fill="white"/>
</clipPath>
<clipPath id="clip1_66_1168">
<rect width="24" height="24" fill="white" transform="translate(323 761)"/>
</clipPath>
<clipPath id="clip2_66_1168">
<rect width="16" height="16" fill="white" transform="translate(61 10)"/>
</clipPath>
</defs>
</svg>
